<?xml version="1.0" encoding="UTF-8" standalone="no"?>
<!-- Created with Inkscape (http://www.inkscape.org/) -->

<svg
   xmlns:dc="http://purl.org/dc/elements/1.1/"
   xmlns:cc="http://creativecommons.org/ns#"
   xmlns:rdf="http://www.w3.org/1999/02/22-rdf-syntax-ns#"
   xmlns:svg="http://www.w3.org/2000/svg"
   xmlns="http://www.w3.org/2000/svg"
   xmlns:sodipodi="http://sodipodi.sourceforge.net/DTD/sodipodi-0.dtd"
   xmlns:inkscape="http://www.inkscape.org/namespaces/inkscape"
   version="1.1"
   width="595.276pt"
   height="841.89001pt"
   viewBox="0 0 595.276 841.89"
   id="svg2"
   style="fill-rule:evenodd"
   inkscape:version="0.48.4 r"
   sodipodi:docname="F32TF7GFRIQ7FHG_1_.svg">
  <sodipodi:namedview
     pagecolor="#ffffff"
     bordercolor="#666666"
     borderopacity="1"
     objecttolerance="10"
     gridtolerance="10"
     guidetolerance="10"
     inkscape:pageopacity="0"
     inkscape:pageshadow="2"
     inkscape:window-width="1538"
     inkscape:window-height="878"
     id="namedview4260"
     showgrid="false"
     inkscape:object-nodes="false"
     inkscape:snap-smooth-nodes="false"
     inkscape:object-paths="true"
     inkscape:snap-object-midpoints="true"
     showguides="true"
     inkscape:guide-bbox="true"
     inkscape:snap-intersection-paths="false"
     inkscape:zoom="1.9588147"
     inkscape:cx="371.59976"
     inkscape:cy="814.90081"
     inkscape:window-x="-8"
     inkscape:window-y="-8"
     inkscape:window-maximized="1"
     inkscape:current-layer="g6" />
  <metadata
     id="metadata48">
    <rdf:RDF>
      <cc:Work
         rdf:about="">
        <dc:format>image/svg+xml</dc:format>
        <dc:type
           rdf:resource="http://purl.org/dc/dcmitype/StillImage" />
        <dc:title></dc:title>
      </cc:Work>
    </rdf:RDF>
  </metadata>
  <defs
     id="defs46" />
  <g
     id="g4"
     style="stroke:#000000;stroke-opacity:1"
     transform="translate(254.76032,-602.31414)">
    <g
       id="g6"
       style="stroke:#000000;stroke-opacity:1">
      <path
         d="m -28.3465,856.063 141.7325,0 0,-127.559 -141.7325,0 0,127.559 z"
         inkscape:connector-curvature="0"
         id="path8"
         style="fill:none;stroke:#000000;stroke-width:2.00012994;stroke-opacity:1" />
      <path
         d="m 113.386,856.063 141.732,0 0,-127.559 -141.732,0 0,127.559 z"
         inkscape:connector-curvature="0"
         id="path10"
         style="fill:none;stroke:#000000;stroke-width:2.00012994;stroke-opacity:1" />
      <path
         d="m -170.079,856.063 141.7325,0 0,-127.559 -141.7325,0 0,127.559 z"
         inkscape:connector-curvature="0"
         id="path12"
         style="fill:none;stroke:#000000;stroke-width:2.00012994;stroke-opacity:1" />
      <path
         d="m 0,833.386 0,8.504 28.3465,0 0,-8.504 9.6378,0 0,-22.677 -4.5355,0 0,-8.504 4.5355,0 0,-5.67 9.0708,0 0,5.67 4.5354,0 0,8.504 -4.5354,0 0,22.677 9.6378,0 0,8.504 28.3465,0 0,-8.504"
         inkscape:connector-curvature="0"
         id="path14"
         style="fill:none;stroke:#000000;stroke-opacity:1" />
      <g
         id="g16"
         style="stroke:#000000;stroke-opacity:1">
        <path
           d="m 0,776.693 28.3465,0 0,8.504 -28.3465,0 0,-8.504 z"
           inkscape:connector-curvature="0"
           id="path18"
           style="fill:none;stroke:#000000;stroke-opacity:1" />
        <path
           d="m 56.6929,776.693 28.3465,0 0,8.504 -28.3465,0 0,-8.504 z"
           inkscape:connector-curvature="0"
           id="path20"
           style="fill:none;stroke:#000000;stroke-opacity:1" />
        <path
           d="m 42.5197,776.551 c 2.4252,0 4.3937,1.969 4.3937,4.394 0,2.425 -1.9685,4.394 -4.3937,4.394 -2.4252,0 -4.3937,-1.969 -4.3937,-4.394 0,-2.425 1.9685,-4.394 4.3937,-4.394 z"
           inkscape:connector-curvature="0"
           id="path22"
           style="fill:none;stroke:#000000;stroke-opacity:1" />
      </g>
      <path
         d="m 141.732,824.882 0,17.008 28.347,0 0,-17.008 9.638,0 0,-14.173 -4.536,0 0,-8.504 4.536,0 0,-5.67 9.07,0 0,5.67 4.536,0 0,8.504 -4.536,0 0,14.173 9.638,0 0,17.008 28.347,0 0,-17.008"
         inkscape:connector-curvature="0"
         id="path24"
         style="fill:none;stroke:#000000;stroke-opacity:1" />
      <g
         id="g26"
         style="stroke:#000000;stroke-opacity:1">
        <path
           d="m 141.732,772.441 28.347,0 0,17.008 -28.347,0 0,-17.008 z"
           inkscape:connector-curvature="0"
           id="path28"
           style="fill:none;stroke:#000000;stroke-opacity:1" />
        <path
           d="m 198.425,772.441 28.347,0 0,17.008 -28.347,0 0,-17.008 z"
           inkscape:connector-curvature="0"
           id="path30"
           style="fill:none;stroke:#000000;stroke-opacity:1" />
        <path
           d="m 184.252,776.551 c 2.425,0 4.394,1.969 4.394,4.394 0,2.425 -1.969,4.394 -4.394,4.394 -2.425,0 -4.394,-1.969 -4.394,-4.394 0,-2.425 1.969,-4.394 4.394,-4.394 z"
           inkscape:connector-curvature="0"
           id="path32"
           style="fill:none;stroke:#000000;stroke-opacity:1" />
      </g>
      <path
         d="m -141.732,822.047 0,8.504 28.346,0 0,-8.504 9.638,0 0,-8.504 -4.535,0 0,-8.504 4.535,0 0,-5.669 9.0708,0 0,5.669 4.5355,0 0,8.504 -4.5355,0 0,8.504 9.6378,0 0,8.504 28.3465,0 0,-8.504"
         inkscape:connector-curvature="0"
         id="path34"
         style="fill:none;stroke:#000000;stroke-opacity:1" />
      <g
         id="g36"
         style="stroke:#000000;stroke-opacity:1">
        <path
           d="m -141.732,776.693 28.346,0 0,8.504 -28.346,0 0,-8.504 z"
           inkscape:connector-curvature="0"
           id="path38"
           style="fill:none;stroke:#000000;stroke-opacity:1" />
        <path
           d="m -85.0394,776.693 28.3465,0 0,8.504 -28.3465,0 0,-8.504 z"
           inkscape:connector-curvature="0"
           id="path40"
           style="fill:none;stroke:#000000;stroke-opacity:1" />
        <path
           d="m -99.2126,776.551 c 2.4252,0 4.3937,1.969 4.3937,4.394 0,2.425 -1.9685,4.394 -4.3937,4.394 -2.4254,0 -4.3934,-1.969 -4.3934,-4.394 0,-2.425 1.968,-4.394 4.3934,-4.394 z"
           inkscape:connector-curvature="0"
           id="path42"
           style="fill:none;stroke:#000000;stroke-opacity:1" />
        <path
           style="fill:none;stroke:#000000;stroke-width:1px;stroke-linecap:butt;stroke-linejoin:miter;stroke-opacity:1"
           d="m 141.28539,217.97361 0.0131,10.63"
           id="path5030"
           inkscape:connector-curvature="0"
           transform="matrix(0.80000003,0,0,0.80000003,-254.76032,602.3141)" />
      </g>
      <flowRoot
         xml:space="preserve"
         id="flowRoot5064"
         style="font-size:40px;font-style:normal;font-weight:normal;line-height:125%;letter-spacing:0px;word-spacing:0px;fill:#000000;fill-opacity:1;stroke:#000000;font-family:Sans;stroke-opacity:1"
         transform="matrix(0.80000003,0,0,0.80000003,-254.76032,602.3141)"><flowRegion
           id="flowRegion5066"><rect
             id="rect5068"
             width="162.34308"
             height="42.372562"
             x="113.84435"
             y="163.55975"
             style="stroke:#000000;stroke-opacity:1" /></flowRegion><flowPara
           id="flowPara5070">3MM</flowPara></flowRoot>      <text
         xml:space="preserve"
         style="font-size:32px;font-style:normal;font-weight:normal;line-height:125%;letter-spacing:0px;word-spacing:0px;fill:#000000;fill-opacity:1;stroke:none;font-family:Sans"
         x="-99.623665"
         y="743.37219"
         id="text5072"
         sodipodi:linespacing="125%"><tspan
           sodipodi:role="line"
           id="tspan5074"
           x="-99.623665"
           y="743.37219"
           style="font-size:8px;text-align:center;text-anchor:middle">3 MM SHEET STOCK</tspan><tspan
           sodipodi:role="line"
           x="-99.623665"
           y="753.37219"
           style="font-size:8px;text-align:center;text-anchor:middle"
           id="tspan5076">3M X 10MM MACHINE SCREW</tspan></text>
      <text
         sodipodi:linespacing="125%"
         id="text5078"
         y="742.96381"
         x="42.911514"
         style="font-size:32px;font-style:normal;font-weight:normal;line-height:125%;letter-spacing:0px;word-spacing:0px;fill:#000000;fill-opacity:1;stroke:none;font-family:Sans"
         xml:space="preserve"><tspan
           style="font-size:8px;text-align:center;text-anchor:middle"
           y="742.96381"
           x="42.911514"
           id="tspan5080"
           sodipodi:role="line">3 MM SHEET STOCK</tspan><tspan
           id="tspan5082"
           style="font-size:8px;text-align:center;text-anchor:middle"
           y="752.96381"
           x="42.911514"
           sodipodi:role="line">3M X 16MM MACHINE SCREW</tspan></text>
      <text
         xml:space="preserve"
         style="font-size:32px;font-style:normal;font-weight:normal;line-height:125%;letter-spacing:0px;word-spacing:0px;fill:#000000;fill-opacity:1;stroke:none;font-family:Sans"
         x="187.89716"
         y="742.96381"
         id="text5084"
         sodipodi:linespacing="125%"><tspan
           sodipodi:role="line"
           id="tspan5086"
           x="187.89716"
           y="742.96381"
           style="font-size:8px;text-align:center;text-anchor:middle">6 MM SHEET STOCK</tspan><tspan
           sodipodi:role="line"
           x="187.89716"
           y="752.96381"
           style="font-size:8px;text-align:center;text-anchor:middle"
           id="tspan5088">3M X 16MM MACHINE SCREW</tspan></text>
    </g>
  </g>
</svg>
