solid arduinoUnoHolder
facet normal 0.0 -1.0 0.0
   outer loop
      vertex 96.7876278520561 105.196412181646 16.245996818999
      vertex 95.8042608520561 105.196412181646 3.69999999999997
      vertex 96.7876278520561 105.196412181646 3.69999999999997
   endloop
endfacet
facet normal 0.0 -1.0 0.0
   outer loop
      vertex 95.8042608520561 105.196412181646 3.69999999999997
      vertex 96.7876278520561 105.196412181646 16.245996818999
      vertex 95.8042608520561 105.196412181646 16.245996818999
   endloop
endfacet
facet normal 0.0 1.0 0.0
   outer loop
      vertex 95.8042608520561 95.5964121816463 16.245996818999
      vertex 96.7876278520561 95.5964121816463 3.69999999999997
      vertex 95.8042608520561 95.5964121816463 3.69999999999997
   endloop
endfacet
facet normal 0.0 1.0 0.0
   outer loop
      vertex 96.7876278520561 95.5964121816463 3.69999999999997
      vertex 95.8042608520561 95.5964121816463 16.245996818999
      vertex 96.7876278520561 95.5964121816463 16.245996818999
   endloop
endfacet
facet normal -0.0 1.0 -0.0
   outer loop
      vertex 26.235203852056 54.3580805813184 19.75
      vertex 95.8042608520561 54.3580805813184 0.500000000000003
      vertex 26.235203852056 54.3580805813184 0.500000000000003
   endloop
endfacet
facet normal -0.0 1.0 -0.0
   outer loop
      vertex 95.8042608520561 54.3580805813184 0.500000000000003
      vertex 26.235203852056 54.3580805813184 19.75
      vertex 86.8042608520561 54.3580805813184 3.57075881338867
   endloop
endfacet
facet normal -0.0 1.0 -0.0
   outer loop
      vertex 86.8042608520561 54.3580805813184 3.57075881338867
      vertex 26.235203852056 54.3580805813184 19.75
      vertex 86.8042608520561 54.3580805813184 10.7047633988717
   endloop
endfacet
facet normal -0.0 1.0 -0.0
   outer loop
      vertex 86.8042608520561 54.3580805813184 10.7047633988717
      vertex 26.235203852056 54.3580805813184 19.75
      vertex 92.8042608520561 54.3580805813184 10.7047633988717
   endloop
endfacet
facet normal -0.0 1.0 -0.0
   outer loop
      vertex 95.8042608520561 54.3580805813184 0.500000000000003
      vertex 92.8042608520561 54.3580805813184 3.57075881338867
      vertex 95.8042608520561 54.3580805813184 19.75
   endloop
endfacet
facet normal -0.0 1.0 -0.0
   outer loop
      vertex 92.8042608520561 54.3580805813184 3.57075881338867
      vertex 95.8042608520561 54.3580805813184 0.500000000000003
      vertex 86.8042608520561 54.3580805813184 3.57075881338867
   endloop
endfacet
facet normal -0.0 1.0 -0.0
   outer loop
      vertex 95.8042608520561 54.3580805813184 19.75
      vertex 92.8042608520561 54.3580805813184 3.57075881338867
      vertex 92.8042608520561 54.3580805813184 10.7047633988717
   endloop
endfacet
facet normal -0.0 1.0 -0.0
   outer loop
      vertex 95.8042608520561 54.3580805813184 19.75
      vertex 92.8042608520561 54.3580805813184 10.7047633988717
      vertex 26.235203852056 54.3580805813184 19.75
   endloop
endfacet
facet normal 0.0 0.0 -1.0
   outer loop
      vertex 96.7876278520561 105.196412181646 16.245996818999
      vertex 95.8042608520561 95.5964121816463 16.245996818999
      vertex 95.8042608520561 105.196412181646 16.245996818999
   endloop
endfacet
facet normal 0.0 0.0 -1.0
   outer loop
      vertex 95.8042608520561 95.5964121816463 16.245996818999
      vertex 96.7876278520561 105.196412181646 16.245996818999
      vertex 96.7876278520561 95.5964121816463 16.245996818999
   endloop
endfacet
facet normal 0.0 0.0 1.0
   outer loop
      vertex 95.8042608520561 54.3580805813184 0.500000000000003
      vertex 26.235203852056 109.358080581318 0.500000000000003
      vertex 26.235203852056 54.3580805813184 0.500000000000003
   endloop
endfacet
facet normal 0.0 0.0 1.0
   outer loop
      vertex 26.235203852056 109.358080581318 0.500000000000003
      vertex 95.8042608520561 54.3580805813184 0.500000000000003
      vertex 95.8042608520561 109.358080581318 0.500000000000003
   endloop
endfacet
facet normal 0.0 -1.0 0.0
   outer loop
      vertex 95.8042608520561 109.358080581318 19.75
      vertex 26.235203852056 109.358080581318 0.500000000000003
      vertex 95.8042608520561 109.358080581318 0.500000000000003
   endloop
endfacet
facet normal 0.0 -1.0 0.0
   outer loop
      vertex 26.235203852056 109.358080581318 0.500000000000003
      vertex 95.8042608520561 109.358080581318 19.75
      vertex 26.235203852056 109.358080581318 19.75
   endloop
endfacet
facet normal 1.0 0.0 0.0
   outer loop
      vertex 26.235203852056 109.358080581318 0.500000000000003
      vertex 26.235203852056 54.3580805813184 19.75
      vertex 26.235203852056 54.3580805813184 0.500000000000003
   endloop
endfacet
facet normal 1.0 0.0 0.0
   outer loop
      vertex 26.235203852056 54.3580805813184 19.75
      vertex 26.235203852056 109.358080581318 0.500000000000003
      vertex 26.235203852056 109.358080581318 19.75
   endloop
endfacet
facet normal -1.0 0.0 0.0
   outer loop
      vertex 95.8042608520561 54.3580805813184 19.75
      vertex 95.8042608520561 63.9164121816461 16.245996818999
      vertex 95.8042608520561 54.3580805813184 0.500000000000003
   endloop
endfacet
facet normal -1.0 0.0 0.0
   outer loop
      vertex 95.8042608520561 63.9164121816461 16.245996818999
      vertex 95.8042608520561 54.3580805813184 19.75
      vertex 95.8042608520561 109.358080581318 19.75
   endloop
endfacet
facet normal -1.0 0.0 0.0
   outer loop
      vertex 95.8042608520561 63.9164121816461 16.245996818999
      vertex 95.8042608520561 109.358080581318 19.75
      vertex 95.804260852056 76.876412181646 16.245996818999
   endloop
endfacet
facet normal -1.0 0.0 0.0
   outer loop
      vertex 95.804260852056 76.876412181646 16.245996818999
      vertex 95.8042608520561 109.358080581318 19.75
      vertex 95.8042608520561 95.5964121816463 16.245996818999
   endloop
endfacet
facet normal -1.0 0.0 0.0
   outer loop
      vertex 95.804260852056 76.876412181646 16.245996818999
      vertex 95.8042608520561 95.5964121816463 16.245996818999
      vertex 95.8042608520561 77.176412181646 1.99999999999997
   endloop
endfacet
facet normal -1.0 0.0 0.0
   outer loop
      vertex 95.8042608520561 77.176412181646 1.99999999999997
      vertex 95.8042608520561 95.5964121816463 16.245996818999
      vertex 95.8042608520561 77.176412181646 1.7025797495272
   endloop
endfacet
facet normal -1.0 0.0 0.0
   outer loop
      vertex 95.8042608520561 95.5964121816463 16.245996818999
      vertex 95.8042608520561 109.358080581318 19.75
      vertex 95.8042608520561 105.196412181646 16.245996818999
   endloop
endfacet
facet normal -1.0 0.0 0.0
   outer loop
      vertex 95.8042608520561 105.196412181646 16.245996818999
      vertex 95.8042608520561 109.358080581318 19.75
      vertex 95.8042608520561 105.196412181646 3.69999999999997
   endloop
endfacet
facet normal -1.0 0.0 0.0
   outer loop
      vertex 95.8042608520561 54.3580805813184 0.500000000000003
      vertex 95.8042608520561 63.9164121816461 1.7025797495272
      vertex 95.8042608520561 109.358080581318 0.500000000000003
   endloop
endfacet
facet normal -1.0 0.0 0.0
   outer loop
      vertex 95.8042608520561 63.9164121816461 1.7025797495272
      vertex 95.8042608520561 54.3580805813184 0.500000000000003
      vertex 95.8042608520561 63.9164121816461 16.245996818999
   endloop
endfacet
facet normal -1.0 0.0 0.0
   outer loop
      vertex 95.8042608520561 63.9164121816461 1.7025797495272
      vertex 95.8042608520561 63.9164121816461 16.245996818999
      vertex 95.8042608520561 63.9164121816461 3.49999999999997
   endloop
endfacet
facet normal -1.0 0.0 0.0
   outer loop
      vertex 95.8042608520561 109.358080581318 0.500000000000003
      vertex 95.8042608520561 63.9164121816461 1.7025797495272
      vertex 95.8042608520561 77.176412181646 1.7025797495272
   endloop
endfacet
facet normal -1.0 0.0 0.0
   outer loop
      vertex 95.8042608520561 109.358080581318 0.500000000000003
      vertex 95.8042608520561 77.176412181646 1.7025797495272
      vertex 95.8042608520561 95.5964121816463 3.69999999999997
   endloop
endfacet
facet normal -1.0 0.0 0.0
   outer loop
      vertex 95.8042608520561 95.5964121816463 3.69999999999997
      vertex 95.8042608520561 77.176412181646 1.7025797495272
      vertex 95.8042608520561 95.5964121816463 16.245996818999
   endloop
endfacet
facet normal -1.0 0.0 0.0
   outer loop
      vertex 95.8042608520561 109.358080581318 0.500000000000003
      vertex 95.8042608520561 95.5964121816463 3.69999999999997
      vertex 95.8042608520561 105.196412181646 3.69999999999997
   endloop
endfacet
facet normal -1.0 0.0 0.0
   outer loop
      vertex 95.8042608520561 109.358080581318 0.500000000000003
      vertex 95.8042608520561 105.196412181646 3.69999999999997
      vertex 95.8042608520561 109.358080581318 19.75
   endloop
endfacet
facet normal -1.0 0.0 0.0
   outer loop
      vertex 95.804260852056 76.876412181646 16.245996818999
      vertex 95.8042608520561 76.876412181646 1.99999999999997
      vertex 95.8042608520561 76.876412181646 3.49999999999997
   endloop
endfacet
facet normal -1.0 0.0 0.0
   outer loop
      vertex 95.8042608520561 76.876412181646 1.99999999999997
      vertex 95.804260852056 76.876412181646 16.245996818999
      vertex 95.8042608520561 77.176412181646 1.99999999999997
   endloop
endfacet
facet normal 0.0 3.91662011464988e-017 1.0
   outer loop
      vertex 96.7876278520561 95.5964121816463 3.69999999999997
      vertex 95.8042608520561 105.196412181646 3.69999999999997
      vertex 95.8042608520561 95.5964121816463 3.69999999999997
   endloop
endfacet
facet normal 0.0 3.91662011464988e-017 1.0
   outer loop
      vertex 95.8042608520561 105.196412181646 3.69999999999997
      vertex 96.7876278520561 95.5964121816463 3.69999999999997
      vertex 96.7876278520561 105.196412181646 3.69999999999997
   endloop
endfacet
facet normal 0.0 -1.0 0.0
   outer loop
      vertex 96.7876278520561 52.8580805813184 -0.4
      vertex 92.8042608520561 52.8580805813184 3.57075881338867
      vertex 24.501836852056 52.8580805813184 -0.4
   endloop
endfacet
facet normal 0.0 -1.0 0.0
   outer loop
      vertex 92.8042608520561 52.8580805813184 3.57075881338867
      vertex 96.7876278520561 52.8580805813184 -0.4
      vertex 96.7876278520561 52.8580805813184 19.75
   endloop
endfacet
facet normal 0.0 -1.0 0.0
   outer loop
      vertex 24.501836852056 52.8580805813184 -0.4
      vertex 92.8042608520561 52.8580805813184 3.57075881338867
      vertex 86.8042608520561 52.8580805813184 3.57075881338867
   endloop
endfacet
facet normal 0.0 -1.0 0.0
   outer loop
      vertex 92.8042608520561 52.8580805813184 3.57075881338867
      vertex 96.7876278520561 52.8580805813184 19.75
      vertex 92.8042608520561 52.8580805813184 10.7047633988717
   endloop
endfacet
facet normal 0.0 -1.0 0.0
   outer loop
      vertex 92.8042608520561 52.8580805813184 10.7047633988717
      vertex 96.7876278520561 52.8580805813184 19.75
      vertex 86.8042608520561 52.8580805813184 10.7047633988717
   endloop
endfacet
facet normal 0.0 -1.0 0.0
   outer loop
      vertex 86.8042608520561 52.8580805813184 3.57075881338867
      vertex 24.501836852056 52.8580805813184 19.75
      vertex 24.501836852056 52.8580805813184 -0.4
   endloop
endfacet
facet normal 0.0 -1.0 0.0
   outer loop
      vertex 24.501836852056 52.8580805813184 19.75
      vertex 86.8042608520561 52.8580805813184 3.57075881338867
      vertex 86.8042608520561 52.8580805813184 10.7047633988717
   endloop
endfacet
facet normal 0.0 -1.0 0.0
   outer loop
      vertex 24.501836852056 52.8580805813184 19.75
      vertex 86.8042608520561 52.8580805813184 10.7047633988717
      vertex 96.7876278520561 52.8580805813184 19.75
   endloop
endfacet
facet normal 0.0 0.0 -1.0
   outer loop
      vertex 96.7876278520561 110.858080581318 -0.4
      vertex 24.501836852056 52.8580805813184 -0.4
      vertex 24.501836852056 110.858080581318 -0.4
   endloop
endfacet
facet normal 0.0 0.0 -1.0
   outer loop
      vertex 24.501836852056 52.8580805813184 -0.4
      vertex 96.7876278520561 110.858080581318 -0.4
      vertex 96.7876278520561 52.8580805813184 -0.4
   endloop
endfacet
facet normal 0.0 0.0 1.0
   outer loop
      vertex 24.501836852056 52.8580805813184 19.75
      vertex 26.235203852056 54.3580805813184 19.75
      vertex 24.501836852056 110.858080581318 19.75
   endloop
endfacet
facet normal 0.0 0.0 1.0
   outer loop
      vertex 26.235203852056 54.3580805813184 19.75
      vertex 24.501836852056 52.8580805813184 19.75
      vertex 96.7876278520561 52.8580805813184 19.75
   endloop
endfacet
facet normal 0.0 0.0 1.0
   outer loop
      vertex 26.235203852056 54.3580805813184 19.75
      vertex 96.7876278520561 52.8580805813184 19.75
      vertex 95.8042608520561 54.3580805813184 19.75
   endloop
endfacet
facet normal 0.0 0.0 1.0
   outer loop
      vertex 95.8042608520561 54.3580805813184 19.75
      vertex 96.7876278520561 52.8580805813184 19.75
      vertex 95.8042608520561 109.358080581318 19.75
   endloop
endfacet
facet normal 0.0 0.0 1.0
   outer loop
      vertex 24.501836852056 110.858080581318 19.75
      vertex 26.235203852056 109.358080581318 19.75
      vertex 96.7876278520561 110.858080581318 19.75
   endloop
endfacet
facet normal 0.0 0.0 1.0
   outer loop
      vertex 26.235203852056 109.358080581318 19.75
      vertex 24.501836852056 110.858080581318 19.75
      vertex 26.235203852056 54.3580805813184 19.75
   endloop
endfacet
facet normal 0.0 0.0 1.0
   outer loop
      vertex 96.7876278520561 110.858080581318 19.75
      vertex 26.235203852056 109.358080581318 19.75
      vertex 95.8042608520561 109.358080581318 19.75
   endloop
endfacet
facet normal 0.0 0.0 1.0
   outer loop
      vertex 96.7876278520561 110.858080581318 19.75
      vertex 95.8042608520561 109.358080581318 19.75
      vertex 96.7876278520561 52.8580805813184 19.75
   endloop
endfacet
facet normal -1.0 0.0 0.0
   outer loop
      vertex 24.501836852056 110.858080581318 19.75
      vertex 24.501836852056 52.8580805813184 -0.4
      vertex 24.501836852056 52.8580805813184 19.75
   endloop
endfacet
facet normal -1.0 0.0 0.0
   outer loop
      vertex 24.501836852056 52.8580805813184 -0.4
      vertex 24.501836852056 110.858080581318 19.75
      vertex 24.501836852056 110.858080581318 -0.4
   endloop
endfacet
facet normal 0.0 1.0 0.0
   outer loop
      vertex 24.501836852056 110.858080581318 19.75
      vertex 96.7876278520561 110.858080581318 -0.4
      vertex 24.501836852056 110.858080581318 -0.4
   endloop
endfacet
facet normal 0.0 1.0 0.0
   outer loop
      vertex 96.7876278520561 110.858080581318 -0.4
      vertex 24.501836852056 110.858080581318 19.75
      vertex 96.7876278520561 110.858080581318 19.75
   endloop
endfacet
facet normal 1.0 0.0 0.0
   outer loop
      vertex 96.7876278520561 52.8580805813184 -0.4
      vertex 96.7876278520561 63.9164121816461 3.49999999999997
      vertex 96.7876278520561 52.8580805813184 19.75
   endloop
endfacet
facet normal 1.0 0.0 0.0
   outer loop
      vertex 96.7876278520561 63.9164121816461 3.49999999999997
      vertex 96.7876278520561 52.8580805813184 -0.4
      vertex 96.7876278520561 110.858080581318 -0.4
   endloop
endfacet
facet normal 1.0 0.0 0.0
   outer loop
      vertex 96.7876278520561 63.9164121816461 3.49999999999997
      vertex 96.7876278520561 110.858080581318 -0.4
      vertex 96.7876278520561 76.876412181646 3.49999999999997
   endloop
endfacet
facet normal 1.0 0.0 0.0
   outer loop
      vertex 96.7876278520561 76.876412181646 3.49999999999997
      vertex 96.7876278520561 110.858080581318 -0.4
      vertex 96.7876278520561 95.5964121816463 3.69999999999997
   endloop
endfacet
facet normal 1.0 0.0 0.0
   outer loop
      vertex 96.7876278520561 76.876412181646 3.49999999999997
      vertex 96.7876278520561 95.5964121816463 3.69999999999997
      vertex 96.7876278520561 76.876412181646 16.245996818999
   endloop
endfacet
facet normal 1.0 0.0 0.0
   outer loop
      vertex 96.7876278520561 95.5964121816463 3.69999999999997
      vertex 96.7876278520561 110.858080581318 -0.4
      vertex 96.7876278520561 105.196412181646 3.69999999999997
   endloop
endfacet
facet normal 1.0 0.0 0.0
   outer loop
      vertex 96.7876278520561 105.196412181646 3.69999999999997
      vertex 96.7876278520561 110.858080581318 -0.4
      vertex 96.7876278520561 105.196412181646 16.245996818999
   endloop
endfacet
facet normal 1.0 0.0 0.0
   outer loop
      vertex 96.7876278520561 52.8580805813184 19.75
      vertex 96.7876278520561 63.9164121816461 16.245996818999
      vertex 96.7876278520561 110.858080581318 19.75
   endloop
endfacet
facet normal 1.0 0.0 0.0
   outer loop
      vertex 96.7876278520561 63.9164121816461 16.245996818999
      vertex 96.7876278520561 52.8580805813184 19.75
      vertex 96.7876278520561 63.9164121816461 3.49999999999997
   endloop
endfacet
facet normal 1.0 0.0 0.0
   outer loop
      vertex 96.7876278520561 110.858080581318 19.75
      vertex 96.7876278520561 63.9164121816461 16.245996818999
      vertex 96.7876278520561 76.876412181646 16.245996818999
   endloop
endfacet
facet normal 1.0 0.0 0.0
   outer loop
      vertex 96.7876278520561 110.858080581318 19.75
      vertex 96.7876278520561 76.876412181646 16.245996818999
      vertex 96.7876278520561 95.5964121816463 16.245996818999
   endloop
endfacet
facet normal 1.0 0.0 0.0
   outer loop
      vertex 96.7876278520561 95.5964121816463 16.245996818999
      vertex 96.7876278520561 76.876412181646 16.245996818999
      vertex 96.7876278520561 95.5964121816463 3.69999999999997
   endloop
endfacet
facet normal 1.0 0.0 0.0
   outer loop
      vertex 96.7876278520561 110.858080581318 19.75
      vertex 96.7876278520561 95.5964121816463 16.245996818999
      vertex 96.7876278520561 105.196412181646 16.245996818999
   endloop
endfacet
facet normal 1.0 0.0 0.0
   outer loop
      vertex 96.7876278520561 110.858080581318 19.75
      vertex 96.7876278520561 105.196412181646 16.245996818999
      vertex 96.7876278520561 110.858080581318 -0.4
   endloop
endfacet
facet normal 0.0 0.0 1.0
   outer loop
      vertex 96.7876278520561 63.9164121816461 3.49999999999997
      vertex 95.8042608520561 76.876412181646 3.49999999999997
      vertex 95.8042608520561 63.9164121816461 3.49999999999997
   endloop
endfacet
facet normal 0.0 0.0 1.0
   outer loop
      vertex 95.8042608520561 76.876412181646 3.49999999999997
      vertex 96.7876278520561 63.9164121816461 3.49999999999997
      vertex 96.7876278520561 76.876412181646 3.49999999999997
   endloop
endfacet
facet normal -1.0 0.0 0.0
   outer loop
      vertex 95.8042608520561 76.876412181646 3.49999999999997
      vertex 95.8042608520561 63.9164121816461 1.7025797495272
      vertex 95.8042608520561 63.9164121816461 3.49999999999997
   endloop
endfacet
facet normal -1.0 0.0 0.0
   outer loop
      vertex 95.8042608520561 63.9164121816461 1.7025797495272
      vertex 95.8042608520561 76.876412181646 3.49999999999997
      vertex 95.8042608520561 76.876412181646 1.99999999999997
   endloop
endfacet
facet normal -1.0 0.0 0.0
   outer loop
      vertex 95.8042608520561 63.9164121816461 1.7025797495272
      vertex 95.8042608520561 76.876412181646 1.99999999999997
      vertex 95.8042608520561 77.176412181646 1.7025797495272
   endloop
endfacet
facet normal -1.0 0.0 0.0
   outer loop
      vertex 95.8042608520561 77.176412181646 1.7025797495272
      vertex 95.8042608520561 76.876412181646 1.99999999999997
      vertex 95.8042608520561 77.176412181646 1.99999999999997
   endloop
endfacet
facet normal 1.01558047706825e-014 9.38755869544191e-030 -1.0
   outer loop
      vertex 96.7876278520561 76.876412181646 16.245996818999
      vertex 95.8042608520561 63.9164121816461 16.245996818999
      vertex 95.804260852056 76.876412181646 16.245996818999
   endloop
endfacet
facet normal 1.01558047706825e-014 9.38755869544191e-030 -1.0
   outer loop
      vertex 95.8042608520561 63.9164121816461 16.245996818999
      vertex 96.7876278520561 76.876412181646 16.245996818999
      vertex 96.7876278520561 63.9164121816461 16.245996818999
   endloop
endfacet
facet normal -0.0 1.0 -0.0
   outer loop
      vertex 95.8042608520561 63.9164121816461 16.245996818999
      vertex 96.7876278520561 63.9164121816461 3.49999999999997
      vertex 95.8042608520561 63.9164121816461 3.49999999999997
   endloop
endfacet
facet normal -0.0 1.0 -0.0
   outer loop
      vertex 96.7876278520561 63.9164121816461 3.49999999999997
      vertex 95.8042608520561 63.9164121816461 16.245996818999
      vertex 96.7876278520561 63.9164121816461 16.245996818999
   endloop
endfacet
facet normal 2.52769744280085e-031 -1.0 9.42759437003623e-016
   outer loop
      vertex 96.7876278520561 76.876412181646 16.245996818999
      vertex 95.8042608520561 76.876412181646 3.49999999999997
      vertex 96.7876278520561 76.876412181646 3.49999999999997
   endloop
endfacet
facet normal 2.52769744280085e-031 -1.0 9.42759437003623e-016
   outer loop
      vertex 95.8042608520561 76.876412181646 3.49999999999997
      vertex 96.7876278520561 76.876412181646 16.245996818999
      vertex 95.804260852056 76.876412181646 16.245996818999
   endloop
endfacet
facet normal -1.40998324127395e-016 -0.0 1.0
   outer loop
      vertex 92.8042608520561 52.8580805813184 3.57075881338867
      vertex 86.8042608520561 54.3580805813184 3.57075881338867
      vertex 86.8042608520561 52.8580805813184 3.57075881338867
   endloop
endfacet
facet normal -1.40998324127395e-016 -0.0 1.0
   outer loop
      vertex 86.8042608520561 54.3580805813184 3.57075881338867
      vertex 92.8042608520561 52.8580805813184 3.57075881338867
      vertex 92.8042608520561 54.3580805813184 3.57075881338867
   endloop
endfacet
facet normal 1.0 0.0 0.0
   outer loop
      vertex 86.8042608520561 54.3580805813184 3.57075881338867
      vertex 86.8042608520561 52.8580805813184 10.7047633988717
      vertex 86.8042608520561 52.8580805813184 3.57075881338867
   endloop
endfacet
facet normal 1.0 0.0 0.0
   outer loop
      vertex 86.8042608520561 52.8580805813184 10.7047633988717
      vertex 86.8042608520561 54.3580805813184 3.57075881338867
      vertex 86.8042608520561 54.3580805813184 10.7047633988717
   endloop
endfacet
facet normal 0.0 0.0 -1.0
   outer loop
      vertex 92.8042608520561 54.3580805813184 10.7047633988717
      vertex 86.8042608520561 52.8580805813184 10.7047633988717
      vertex 86.8042608520561 54.3580805813184 10.7047633988717
   endloop
endfacet
facet normal 0.0 0.0 -1.0
   outer loop
      vertex 86.8042608520561 52.8580805813184 10.7047633988717
      vertex 92.8042608520561 54.3580805813184 10.7047633988717
      vertex 92.8042608520561 52.8580805813184 10.7047633988717
   endloop
endfacet
facet normal -1.0 -0.0 -0.0
   outer loop
      vertex 92.8042608520561 54.3580805813184 10.7047633988717
      vertex 92.8042608520561 52.8580805813184 3.57075881338867
      vertex 92.8042608520561 52.8580805813184 10.7047633988717
   endloop
endfacet
facet normal -1.0 -0.0 -0.0
   outer loop
      vertex 92.8042608520561 52.8580805813184 3.57075881338867
      vertex 92.8042608520561 54.3580805813184 10.7047633988717
      vertex 92.8042608520561 54.3580805813184 3.57075881338867
   endloop
endfacet
endsolid arduinoUnoHolder
