solid ascii
  facet normal 0.000000e+00 5.773502e+00 5.773503e+00
    outer loop
      vertex   5.365680e+01 -5.000011e+00 -1.529419e+01
      vertex   8.365680e+01 -5.000011e+00 -1.529419e+01
      vertex   6.865680e+01 9.999990e+00 -3.029419e+01
    endloop
  endfacet
  facet normal 5.773500e+00 0.000000e+00 5.773500e+00
    outer loop
      vertex   5.365680e+01 2.500001e+01 -1.529419e+01
      vertex   5.365680e+01 -5.000011e+00 -1.529419e+01
      vertex   6.865680e+01 9.999990e+00 -3.029419e+01
    endloop
  endfacet
  facet normal 0.000000e+00 -5.773501e+00 5.773509e+00
    outer loop
      vertex   8.365680e+01 2.500001e+01 -1.529419e+01
      vertex   5.365680e+01 2.500001e+01 -1.529419e+01
      vertex   6.865680e+01 9.999990e+00 -3.029419e+01
    endloop
  endfacet
  facet normal -5.773502e+00 0.000000e+00 5.773501e+00
    outer loop
      vertex   8.365680e+01 -5.000011e+00 -1.529419e+01
      vertex   8.365680e+01 2.500001e+01 -1.529419e+01
      vertex   6.865680e+01 9.999990e+00 -3.029419e+01
    endloop
  endfacet
  facet normal 0.000000e+00 0.000000e+00 7.071068e+00
    outer loop
      vertex   8.365680e+01 2.500001e+01 -1.529419e+01
      vertex   8.865680e+01 3.000001e+01 -1.529419e+01
      vertex   5.365680e+01 2.500001e+01 -1.529419e+01
    endloop
  endfacet
  facet normal 0.000000e+00 0.000000e+00 8.000000e+00
    outer loop
      vertex   8.365680e+01 2.500001e+01 -1.529419e+01
      vertex   8.865680e+01 -1.000001e+01 -1.529419e+01
      vertex   8.865680e+01 3.000001e+01 -1.529419e+01
    endloop
  endfacet
  facet normal 0.000000e+00 0.000000e+00 1.414213e+00
    outer loop
      vertex   8.365680e+01 2.500001e+01 -1.529419e+01
      vertex   8.365680e+01 -5.000011e+00 -1.529419e+01
      vertex   8.865680e+01 -1.000001e+01 -1.529419e+01
    endloop
  endfacet
  facet normal 0.000000e+00 0.000000e+00 5.999999e+00
    outer loop
      vertex   8.865680e+01 -1.000001e+01 -1.529419e+01
      vertex   8.365680e+01 -5.000011e+00 -1.529419e+01
      vertex   5.365680e+01 -5.000011e+00 -1.529419e+01
    endloop
  endfacet
  facet normal 0.000000e+00 0.000000e+00 6.000002e+00
    outer loop
      vertex   4.865680e+01 -1.000001e+01 -1.529419e+01
      vertex   5.365680e+01 -5.000011e+00 -1.529419e+01
      vertex   5.365680e+01 2.500001e+01 -1.529419e+01
    endloop
  endfacet
  facet normal 0.000000e+00 0.000000e+00 7.071068e+00
    outer loop
      vertex   4.865680e+01 3.000001e+01 -1.529419e+01
      vertex   5.365680e+01 2.500001e+01 -1.529419e+01
      vertex   8.865680e+01 3.000001e+01 -1.529419e+01
    endloop
  endfacet
  facet normal 0.000000e+00 0.000000e+00 7.071068e+00
    outer loop
      vertex   4.865680e+01 3.000001e+01 -1.529419e+01
      vertex   4.865680e+01 -1.000001e+01 -1.529419e+01
      vertex   5.365680e+01 2.500001e+01 -1.529419e+01
    endloop
  endfacet
  facet normal 0.000000e+00 0.000000e+00 1.414213e+00
    outer loop
      vertex   8.865680e+01 -1.000001e+01 -1.529419e+01
      vertex   5.365680e+01 -5.000011e+00 -1.529419e+01
      vertex   4.865680e+01 -1.000001e+01 -1.529419e+01
    endloop
  endfacet
  facet normal 0.000000e+00 -6.666666e+00 -6.666667e+00
    outer loop
      vertex   6.865680e+01 9.999990e+00 -3.529419e+01
      vertex   8.865680e+01 -1.000001e+01 -1.529419e+01
      vertex   4.865680e+01 -1.000001e+01 -1.529419e+01
    endloop
  endfacet
  facet normal -5.551115e-16 6.666662e+00 -6.666669e+00
    outer loop
      vertex   6.865680e+01 9.999990e+00 -3.529419e+01
      vertex   4.865680e+01 3.000001e+01 -1.529419e+01
      vertex   8.865680e+01 3.000001e+01 -1.529419e+01
    endloop
  endfacet
  facet normal 5.773501e+00 0.000000e+00 -5.773500e+00
    outer loop
      vertex   8.865680e+01 3.000001e+01 -1.529419e+01
      vertex   8.865680e+01 -1.000001e+01 -1.529419e+01
      vertex   6.865680e+01 9.999990e+00 -3.529419e+01
    endloop
  endfacet
  facet normal -5.773502e+00 0.000000e+00 -5.773502e+00
    outer loop
      vertex   4.865680e+01 -1.000001e+01 -1.529419e+01
      vertex   4.865680e+01 3.000001e+01 -1.529419e+01
      vertex   6.865680e+01 9.999990e+00 -3.529419e+01
    endloop
  endfacet
endsolid
