# Alias OBJ Model File
# Exported from SketchUp, (c) 2000-2012 Trimble Navigation Limited
# File units = millimeters

mtllib Shaker0.2-top.mtl

g Mesh1 Model

usemtl FrontColor
v 48.6568 1.40998e-15 -5.29418
vt 0.208432 1.35455
vn 0.707107 -0.707107 1.58275e-17
v 48.6568 1.40998e-15 -45.2942
vt 1.78324 1.35455
v 68.6568 20 -25.2942
vt 0.995834 2.4681
f 1/1/1 2/2/1 3/3/1

v 88.6568 1.40998e-15 -5.29418
vt 3.49043 0.208432
vn 0 1 -0
v 88.6568 1.40998e-15 -45.2942
vt 3.49043 1.78324
vt 1.91562 1.78324
vt 1.91562 0.208432
f 4/4/2 5/5/2 2/6/2 1/7/2 

vt -1.78324 -2.4681
vn -0.707107 -0.707107 1.58275e-17
vt -0.208432 -2.4681
vt -0.995834 -1.35455
f 5/8/3 4/9/3 3/10/3

vt -1.91562 0.147384
vn -1.58275e-17 -0.707107 -0.707107
vt -2.70302 1.26094
vt -3.49043 0.147384
f 1/11/4 3/12/4 4/13/4

vt 3.49043 -1.26094
vn 1.58275e-17 -0.707107 0.707107
vt 2.70302 -0.147384
vt 1.91562 -1.26094
f 5/14/5 3/15/5 2/16/5

