# Alias OBJ Model File
# Exported from SketchUp, (c) 2000-2012 Trimble Navigation Limited
# File units = inches

mtllib Shaker Body - Square.mtl

g Mesh1 Group1 Model

usemtl FrontColor
v 0 0 -32.111
vt 0 32.111
vn 0 -1 -0
v 32.111 0 -32.111
vt -32.111 32.111
v 32.111 0 -0
vt -32.111 0
v 0 0 -0
vt 0 0
f 1/1/1 2/2/1 3/3/1 4/4/1 

vn 0 0 -1
v 0 20.414 -32.111
vt 0 20.414
v 32.111 20.414 -32.111
vt -32.111 20.414
f 2/3/2 1/4/2 5/5/2 6/6/2 

vn -1 0 -0
v 0 20.414 -0
f 1/3/3 4/4/3 7/5/3 5/6/3 

vn 0 0 1
vt 32.111 0
v 32.111 20.414 -0
vt 32.111 20.414
f 4/4/4 3/7/4 8/8/4 7/5/4 

vn 1 0 -0
f 3/4/5 2/7/5 6/8/5 8/5/5 

vt 32.111 32.111
vn 0 1 -0
f 6/9/6 5/1/6 7/4/6 8/7/6 

