solid ascii
  facet normal 1.068312e-16 -5.773503e+00 5.773502e+00
    outer loop
      vertex   5.365680e+01 1.665335e-15 -4.029420e+01
      vertex   8.365680e+01 2.220446e-15 -4.029420e+01
      vertex   6.865680e+01 1.500000e+01 -2.529420e+01
    endloop
  endfacet
  facet normal 5.773501e+00 -5.773501e+00 0.000000e+00
    outer loop
      vertex   5.365680e+01 1.665335e-15 -1.029419e+01
      vertex   5.365680e+01 1.665335e-15 -4.029420e+01
      vertex   6.865680e+01 1.500000e+01 -2.529420e+01
    endloop
  endfacet
  facet normal 1.068313e-16 -5.773506e+00 -5.773502e+00
    outer loop
      vertex   8.365680e+01 2.220446e-15 -1.029419e+01
      vertex   5.365680e+01 1.665335e-15 -1.029419e+01
      vertex   6.865680e+01 1.500000e+01 -2.529420e+01
    endloop
  endfacet
  facet normal -5.773503e+00 -5.773501e+00 0.000000e+00
    outer loop
      vertex   8.365680e+01 2.220446e-15 -4.029420e+01
      vertex   8.365680e+01 2.220446e-15 -1.029419e+01
      vertex   6.865680e+01 1.500000e+01 -2.529420e+01
    endloop
  endfacet
  facet normal 1.308411e-16 -7.071075e+00 -1.277012e-15
    outer loop
      vertex   8.365680e+01 2.220446e-15 -1.029419e+01
      vertex   8.865680e+01 1.409980e-15 -5.294180e+00
      vertex   5.365680e+01 1.665335e-15 -1.029419e+01
    endloop
  endfacet
  facet normal -1.296744e-15 -7.999993e+00 0.000000e+00
    outer loop
      vertex   8.365680e+01 2.220446e-15 -1.029419e+01
      vertex   8.865680e+01 1.409980e-15 -4.529420e+01
      vertex   8.865680e+01 1.409980e-15 -5.294180e+00
    endloop
  endfacet
  facet normal -2.292343e-16 -1.414213e+00 -0.000000e+00
    outer loop
      vertex   8.365680e+01 2.220446e-15 -1.029419e+01
      vertex   8.365680e+01 2.220446e-15 -4.029420e+01
      vertex   8.865680e+01 1.409980e-15 -4.529420e+01
    endloop
  endfacet
  facet normal 1.110222e-16 -6.000000e+00 1.083581e-15
    outer loop
      vertex   8.865680e+01 1.409980e-15 -4.529420e+01
      vertex   8.365680e+01 2.220446e-15 -4.029420e+01
      vertex   5.365680e+01 1.665335e-15 -4.029420e+01
    endloop
  endfacet
  facet normal 3.064259e-16 -6.000000e+00 -7.703720e-33
    outer loop
      vertex   4.865680e+01 1.409980e-15 -4.529420e+01
      vertex   5.365680e+01 1.665335e-15 -4.029420e+01
      vertex   5.365680e+01 1.665335e-15 -1.029419e+01
    endloop
  endfacet
  facet normal 0.000000e+00 -7.071075e+00 -3.611259e-16
    outer loop
      vertex   4.865680e+01 1.409980e-15 -5.294180e+00
      vertex   5.365680e+01 1.665335e-15 -1.029419e+01
      vertex   8.865680e+01 1.409980e-15 -5.294180e+00
    endloop
  endfacet
  facet normal 3.611259e-16 -7.071060e+00 0.000000e+00
    outer loop
      vertex   4.865680e+01 1.409980e-15 -5.294180e+00
      vertex   4.865680e+01 1.409980e-15 -4.529420e+01
      vertex   5.365680e+01 1.665335e-15 -1.029419e+01
    endloop
  endfacet
  facet normal 0.000000e+00 -1.414214e+00 7.222528e-17
    outer loop
      vertex   8.865680e+01 1.409980e-15 -4.529420e+01
      vertex   5.365680e+01 1.665335e-15 -4.029420e+01
      vertex   4.865680e+01 1.409980e-15 -4.529420e+01
    endloop
  endfacet
  facet normal -5.551115e-16 6.666667e+00 -6.666666e+00
    outer loop
      vertex   6.865680e+01 2.000000e+01 -2.529420e+01
      vertex   8.865680e+01 1.409980e-15 -4.529420e+01
      vertex   4.865680e+01 1.409980e-15 -4.529420e+01
    endloop
  endfacet
  facet normal 0.000000e+00 6.666669e+00 6.666661e+00
    outer loop
      vertex   6.865680e+01 2.000000e+01 -2.529420e+01
      vertex   4.865680e+01 1.409980e-15 -5.294180e+00
      vertex   8.865680e+01 1.409980e-15 -5.294180e+00
    endloop
  endfacet
  facet normal 5.773501e+00 5.773499e+00 0.000000e+00
    outer loop
      vertex   8.865680e+01 1.409980e-15 -5.294180e+00
      vertex   8.865680e+01 1.409980e-15 -4.529420e+01
      vertex   6.865680e+01 2.000000e+01 -2.529420e+01
    endloop
  endfacet
  facet normal -5.773502e+00 5.773502e+00 0.000000e+00
    outer loop
      vertex   4.865680e+01 1.409980e-15 -4.529420e+01
      vertex   4.865680e+01 1.409980e-15 -5.294180e+00
      vertex   6.865680e+01 2.000000e+01 -2.529420e+01
    endloop
  endfacet
endsolid
