# Alias OBJ Model File
# Exported from SketchUp, (c) 2000-2012 Trimble Navigation Limited
# File units = millimeters

mtllib Ring_18mm_basic_2.0.mtl

g Mesh1 Model

usemtl FrontColor
v 37.2119 0 -25.2189
vt -1.46504 0.99287
vn 0 -1 -0
v 38.0449 0 -22.0483
vt -1.49783 0.868042
v 37.7382 0 -19.7189
vt -1.48576 0.776334
f 1/1/1 2/2/1 3/3/1

v 38.96 0 -27.4971
vt -1.53386 1.08256
f 2/2/1 1/1/1 4/4/1

vt -1.79261 0
vn -0.707107 0 -0.707107
vt -1.67955 0
vn -0.866025 0 -0.5
v 37.2119 2.5 -25.2189
vt -1.67955 0.0984252
v 38.96 2.5 -27.4971
vt -1.79261 0.0984252
f 4/5/2 1/6/3 5/7/3 6/8/2 

vt -1.47794 0
v 36.113 0 -22.5659
vt -1.36488 0
vn -0.965926 0 -0.258819
v 36.113 2.5 -22.5659
vt -1.36488 0.0984252
vt -1.47794 0.0984252
f 1/9/3 7/10/4 8/11/4 5/12/3 

v 36.113 0 -16.8719
vt -1.42177 0.664247
vt -1.42177 0.888421
f 9/13/1 7/14/1 1/1/1

v 35.7382 0 -19.7189
vt -1.40702 0.776334
f 7/14/1 9/13/1 10/15/1

vt -0.58604 0
vn -1 0 1.95966e-16
vt -0.472986 0
vn -0.965926 0 0.258819
v 36.113 2.5 -16.8719
vt -0.472986 0.0984252
v 35.7382 2.5 -19.7189
vt -0.58604 0.0984252
f 10/16/5 9/17/6 11/18/6 12/19/5 

vt -0.0695959 0
v 37.2119 0 -14.2189
vt 0.0434583 0
vn -0.866025 0 0.5
v 37.2119 2.5 -14.2189
vt 0.0434583 0.0984252
vt -0.0695959 0.0984252
f 9/20/6 13/21/7 14/22/7 11/23/6 

vt -1.46504 0.559799
f 9/13/1 1/1/1 13/24/1

f 13/24/1 1/1/1 3/3/1

v 38.0449 0 -17.3895
vt -1.49783 0.684627
f 13/24/1 3/3/1 15/25/1

vt 0.483264 0
vn 0.965926 0 -0.258819
vt 0.575763 0
vn 1 0 -1.6797e-16
v 37.7382 2.5 -19.7189
vt 0.575763 0.0984252
v 38.0449 2.5 -17.3895
vt 0.483264 0.0984252
f 15/26/8 3/27/9 16/28/9 17/29/8 

vt 0.963623 0
vt 1.05612 0
vn 0.965926 0 0.258819
v 38.0449 2.5 -22.0483
vt 1.05612 0.0984252
vt 0.963623 0.0984252
f 3/30/9 2/31/10 18/32/10 16/33/9 

vt 1.37516 0
v 38.944 0 -24.2189
vt 1.46766 0
vn 0.866025 0 0.5
v 38.944 2.5 -24.2189
vt 1.46766 0.0984252
vt 1.37516 0.0984252
f 2/34/10 19/35/11 20/36/11 18/37/10 

vt -1.53323 0.9535
f 2/2/1 4/4/1 19/38/1

v 40.3742 0 -26.0829
vt -1.58954 1.02688
f 19/38/1 4/4/1 21/39/1

v 41.2382 0 -29.2452
vt -1.62355 1.15138
f 21/39/1 4/4/1 22/40/1

vt -1.98897 0
vn -0.5 0 -0.866025
vt -1.87591 0
vt -1.87591 0.0984252
v 41.2382 2.5 -29.2452
vt -1.98897 0.0984252
f 22/41/12 4/42/2 6/43/2 23/44/12 

vt 1.53386 1.08256
vn 0 1 -0
v 40.3742 2.5 -26.0829
vt 1.58954 1.02688
vt 1.62355 1.15138
f 6/45/13 24/46/13 23/47/13

vt 1.53323 0.9535
f 6/45/13 20/48/13 24/46/13

vt 1.49783 0.868042
f 6/45/13 18/49/13 20/48/13

vt 1.46504 0.99287
f 5/50/13 18/49/13 6/45/13

vt 1.48576 0.776334
f 18/49/13 5/50/13 16/51/13

vt 1.46504 0.559799
f 5/50/13 14/52/13 16/51/13

vt 1.42177 0.888421
f 8/53/13 14/52/13 5/50/13

vt 1.42177 0.664247
f 8/53/13 11/54/13 14/52/13

vt 1.40702 0.776334
f 11/54/13 8/53/13 12/55/13

vt -1.0664 0
vt -0.953345 0
vt -0.953345 0.0984252
vt -1.0664 0.0984252
f 7/56/4 10/57/5 12/58/5 8/59/4 

vt 1.49783 0.684627
f 16/51/13 14/52/13 17/60/13

v 38.96 2.5 -11.9407
vt 1.53386 0.470107
f 17/60/13 14/52/13 25/61/13

vt 0.447739 0
v 38.96 0 -11.9407
vt 0.560793 0
vn -0.707107 0 0.707107
vt 0.560793 0.0984252
vt 0.447739 0.0984252
f 13/62/7 26/63/14 25/64/14 14/65/7 

vt -1.53386 0.470107
f 13/24/1 15/25/1 26/66/1

v 38.944 0 -15.2189
vt -1.53323 0.599169
f 26/66/1 15/25/1 27/67/1

vt -0.0331807 0
vn 0.866025 0 -0.5
vt 0.0593182 0
vt 0.0593182 0.0984252
v 38.944 2.5 -15.2189
vt -0.0331807 0.0984252
f 27/68/15 15/69/8 17/70/8 28/71/15 

vt 1.53323 0.599169
f 17/60/13 25/61/13 28/72/13

v 40.3742 2.5 -13.3549
vt 1.58954 0.525785
f 28/72/13 25/61/13 29/73/13

v 41.2382 2.5 -10.1926
vt 1.62355 0.401284
f 29/73/13 25/61/13 30/74/13

vt 0.930709 0
v 41.2382 0 -10.1926
vt 1.04376 0
vn -0.5 0 0.866025
vt 1.04376 0.0984252
vt 0.930709 0.0984252
f 26/75/14 31/76/16 30/77/16 25/78/14 

v 40.3742 0 -13.3549
vt -1.58954 0.525785
vt -1.62355 0.401284
f 26/66/1 32/79/1 31/80/1

f 26/66/1 27/67/1 32/79/1

vt -0.550516 0
vn 0.707107 0 -0.707107
vt -0.458017 0
vt -0.458017 0.0984252
vt -0.550516 0.0984252
f 32/81/17 27/82/15 28/83/15 29/84/17 

v 42.2382 0 -11.9247
vt -1.03349 0
vn 0.5 0 -0.866025
vt -0.940987 0
vt -0.940987 0.0984252
v 42.2382 2.5 -11.9247
vt -1.03349 0.0984252
f 33/85/18 32/86/17 29/87/17 34/88/18 

vt -1.66292 0.469475
f 31/80/1 32/79/1 33/89/1

v 43.8912 0 -9.09371
vt -1.728 0.35802
f 31/80/1 33/89/1 35/90/1

v 44.4088 0 -11.0256
vt -1.74838 0.434077
f 35/90/1 33/89/1 36/91/1

vt -1.44918 0
vn 0.258819 0 -0.965926
vt -1.35668 0
vt -1.35668 0.0984252
v 44.4088 2.5 -11.0256
vt -1.44918 0.0984252
f 36/92/19 33/93/18 34/94/18 37/95/19 

vt 1.66292 0.469475
v 43.8912 2.5 -9.09371
vt 1.728 0.35802
vt 1.74838 0.434077
f 34/96/13 38/97/13 37/98/13

f 34/96/13 30/74/13 38/97/13

f 29/73/13 30/74/13 34/96/13

vt 1.3464 0
vt 1.45946 0
vn -0.258819 0 0.965926
vt 1.45946 0.0984252
vt 1.3464 0.0984252
f 31/99/16 35/100/20 38/101/20 30/102/16 

vt 1.66649 0
v 46.7382 0 -8.71889
vt 1.77954 0
vn -2.23961e-16 0 1
v 46.7382 2.5 -8.71889
vt 1.77954 0.0984252
vt 1.66649 0.0984252
f 35/103/20 39/104/21 40/105/21 38/106/20 

vt -1.84009 0.343263
f 35/90/1 36/91/1 39/107/1

v 46.7382 0 -10.7189
vt -1.84009 0.422004
f 39/107/1 36/91/1 41/108/1

vt -1.76926 0
vn 2.79951e-16 0 -1
vt -1.67676 0
vt -1.67676 0.0984252
v 46.7382 2.5 -10.7189
vt -1.76926 0.0984252
f 41/109/22 36/110/19 37/111/19 42/112/22 

vt 1.84009 0.343263
vt 1.84009 0.422004
f 37/98/13 40/113/13 42/114/13

f 37/98/13 38/97/13 40/113/13

v 49.5852 2.5 -9.09371
vt 1.95217 0.35802
f 42/114/13 40/113/13 43/115/13

vt 1.86915 0
v 49.5852 0 -9.09371
vt 1.9822 0
vn 0.258819 0 0.965926
vt 1.9822 0.0984252
vt 1.86915 0.0984252
f 39/116/21 44/117/23 43/118/23 40/119/21 

v 49.0676 0 -11.0256
vt -1.93179 0.434077
vt -1.95217 0.35802
f 39/107/1 45/120/1 44/121/1

f 39/107/1 41/108/1 45/120/1

vt -1.97193 0
vn -0.258819 0 -0.965926
vt -1.87943 0
vt -1.87943 0.0984252
v 49.0676 2.5 -11.0256
vt -1.97193 0.0984252
f 45/122/24 41/123/22 42/124/22 46/125/24 

vt 1.93179 0.434077
f 42/114/13 43/115/13 46/126/13

v 51.2382 2.5 -11.9247
vt 2.01725 0.469475
f 46/126/13 43/115/13 47/127/13

v 52.2382 2.5 -10.1926
vt 2.05662 0.401284
f 47/127/13 43/115/13 48/128/13

vt 1.94058 0
v 52.2382 0 -10.1926
vt 2.05364 0
vn 0.5 0 0.866025
vt 2.05364 0.0984252
vt 1.94058 0.0984252
f 44/129/23 49/130/25 48/131/25 43/132/23 

v 51.2382 0 -11.9247
vt -2.01725 0.469475
vt -2.05662 0.401284
f 44/121/1 50/133/1 49/134/1

f 44/121/1 45/120/1 50/133/1

vt -2.04336 0
vt -1.95086 0
vt -1.95086 0.0984252
vt -2.04336 0.0984252
f 50/135/12 45/136/24 46/137/24 47/138/12 

v 53.1022 0 -13.3549
vt -1.97869 0
vt -1.88619 0
vt -1.88619 0.0984252
v 53.1022 2.5 -13.3549
vt -1.97869 0.0984252
f 51/139/2 50/140/12 47/141/12 52/142/2 

vt -2.09064 0.525785
f 49/134/1 50/133/1 51/143/1

v 54.5164 0 -11.9407
vt -2.14631 0.470107
f 49/134/1 51/143/1 53/144/1

v 54.5324 0 -15.2189
vt -2.14695 0.599169
f 53/144/1 51/143/1 54/145/1

vt -1.78233 0
vt -1.68983 0
vt -1.68983 0.0984252
v 54.5324 2.5 -15.2189
vt -1.78233 0.0984252
f 54/146/3 51/147/2 52/148/2 55/149/3 

vt 2.09064 0.525785
v 54.5164 2.5 -11.9407
vt 2.14631 0.470107
vt 2.14695 0.599169
f 52/150/13 56/151/13 55/152/13

f 52/150/13 48/128/13 56/151/13

f 47/127/13 48/128/13 52/150/13

vt 1.87591 0
vt 1.98897 0
vn 0.707107 0 0.707107
vt 1.98897 0.0984252
vt 1.87591 0.0984252
f 49/153/25 53/154/26 56/155/26 48/156/25 

vt 1.67955 0
v 56.2645 0 -14.2189
vt 1.79261 0
v 56.2645 2.5 -14.2189
vt 1.79261 0.0984252
vt 1.67955 0.0984252
f 53/157/26 57/158/11 58/159/11 56/160/26 

vt -2.21514 0.559799
f 53/144/1 54/145/1 57/161/1

v 55.4315 0 -17.3895
vt -2.18234 0.684627
f 57/161/1 54/145/1 59/162/1

vt -1.46766 0
vt -1.37516 0
vt -1.37516 0.0984252
v 55.4315 2.5 -17.3895
vt -1.46766 0.0984252
f 59/163/4 54/164/3 55/165/3 60/166/4 

vt 2.21514 0.559799
vt 2.18234 0.684627
f 55/152/13 58/167/13 60/168/13

f 55/152/13 56/151/13 58/167/13

v 55.7382 2.5 -19.7189
vt 2.19442 0.776334
f 60/168/13 58/167/13 61/169/13

v 56.2645 2.5 -25.2189
vt 2.21514 0.99287
f 62/170/13 61/169/13 58/167/13

v 55.4315 2.5 -22.0483
vt 2.18234 0.868042
f 62/170/13 63/171/13 61/169/13

v 54.5324 2.5 -24.2189
vt 2.14695 0.9535
f 62/170/13 64/172/13 63/171/13

v 54.5164 2.5 -27.4971
vt 2.14631 1.08256
f 65/173/13 64/172/13 62/170/13

v 53.1022 2.5 -26.0829
vt 2.09064 1.02688
f 65/173/13 66/174/13 64/172/13

v 52.2382 2.5 -29.2452
vt 2.05662 1.15138
f 67/175/13 66/174/13 65/173/13

v 51.2382 2.5 -27.5131
vt 2.01725 1.08319
f 67/175/13 68/176/13 66/174/13

v 49.5852 2.5 -30.3441
vt 1.95217 1.19465
f 69/177/13 68/176/13 67/175/13

v 49.0676 2.5 -28.4122
vt 1.93179 1.11859
f 69/177/13 70/178/13 68/176/13

v 46.7382 2.5 -30.7189
vt 1.84009 1.20941
f 71/179/13 70/178/13 69/177/13

v 46.7382 2.5 -28.7189
vt 1.84009 1.13067
f 71/179/13 72/180/13 70/178/13

v 44.4088 2.5 -28.4122
vt 1.74838 1.11859
f 71/179/13 73/181/13 72/180/13

v 43.8912 2.5 -30.3441
vt 1.728 1.19465
f 74/182/13 73/181/13 71/179/13

v 42.2382 2.5 -27.5131
vt 1.66292 1.08319
f 74/182/13 75/183/13 73/181/13

f 23/47/13 75/183/13 74/182/13

f 23/47/13 24/46/13 75/183/13

vt 1.88619 0
v 42.2382 0 -27.5131
vt 1.97869 0
vt 1.97869 0.0984252
vt 1.88619 0.0984252
f 21/184/26 76/185/25 75/186/25 24/187/26 

vt -1.66292 1.08319
f 21/39/1 22/40/1 76/188/1

v 43.8912 0 -30.3441
vt -1.728 1.19465
f 76/188/1 22/40/1 77/189/1

vt -2.05364 0
vt -1.94058 0
vt -1.94058 0.0984252
vt -2.05364 0.0984252
f 77/190/24 22/191/12 23/192/12 74/193/24 

v 46.7382 0 -30.7189
vt -1.9822 0
vn 0 0 -1
vt -1.86915 0
vt -1.86915 0.0984252
vt -1.9822 0.0984252
f 78/194/27 77/195/24 74/196/24 71/197/27 

v 44.4088 0 -28.4122
vt -1.74838 1.11859
vt -1.84009 1.20941
f 79/198/1 77/189/1 78/199/1

f 76/188/1 77/189/1 79/198/1

vt 1.95086 0
vt 2.04336 0
vt 2.04336 0.0984252
vt 1.95086 0.0984252
f 76/200/25 79/201/23 73/202/23 75/203/25 

vt 1.87943 0
v 46.7382 0 -28.7189
vt 1.97193 0
vn 0 0 1
vt 1.97193 0.0984252
vt 1.87943 0.0984252
f 79/204/23 80/205/28 72/206/28 73/207/23 

vt -1.84009 1.13067
f 79/198/1 78/199/1 80/208/1

v 49.5852 0 -30.3441
vt -1.95217 1.19465
f 80/208/1 78/199/1 81/209/1

vt -1.77954 0
vt -1.66649 0
vt -1.66649 0.0984252
vt -1.77954 0.0984252
f 81/210/19 78/211/27 71/212/27 69/213/19 

v 52.2382 0 -29.2452
vt -1.45946 0
vt -1.3464 0
vt -1.3464 0.0984252
vt -1.45946 0.0984252
f 82/214/18 81/215/19 69/216/19 67/217/18 

v 51.2382 0 -27.5131
vt -2.01725 1.08319
vt -2.05662 1.15138
f 83/218/1 81/209/1 82/219/1

v 49.0676 0 -28.4122
vt -1.93179 1.11859
f 84/220/1 81/209/1 83/218/1

f 80/208/1 81/209/1 84/220/1

vt 1.67676 0
vt 1.76926 0
vt 1.76926 0.0984252
vt 1.67676 0.0984252
f 80/221/28 84/222/20 70/223/20 72/224/28 

vt 1.35668 0
vt 1.44918 0
vt 1.44918 0.0984252
vt 1.35668 0.0984252
f 84/225/20 83/226/16 68/227/16 70/228/20 

vt 0.940987 0
v 53.1022 0 -26.0829
vt 1.03349 0
vt 1.03349 0.0984252
vt 0.940987 0.0984252
f 83/229/16 85/230/14 66/231/14 68/232/16 

vt -2.09064 1.02688
f 83/218/1 82/219/1 85/233/1

v 54.5164 0 -27.4971
vt -2.14631 1.08256
f 85/233/1 82/219/1 86/234/1

vt -1.04376 0
vt -0.930709 0
vt -0.930709 0.0984252
vt -1.04376 0.0984252
f 86/235/17 82/236/18 67/237/18 65/238/17 

v 56.2645 0 -25.2189
vt -0.560793 0
vt -0.447739 0
vt -0.447739 0.0984252
vt -0.560793 0.0984252
f 87/239/15 86/240/17 65/241/17 62/242/15 

v 54.5324 0 -24.2189
vt -2.14695 0.9535
vt -2.21514 0.99287
f 88/243/1 86/234/1 87/244/1

f 85/233/1 86/234/1 88/243/1

vt 0.458017 0
vt 0.550516 0
vt 0.550516 0.0984252
vt 0.458017 0.0984252
f 85/245/14 88/246/7 64/247/7 66/248/14 

vt -0.0593182 0
v 55.4315 0 -22.0483
vt 0.0331807 0
vt 0.0331807 0.0984252
vt -0.0593182 0.0984252
f 88/249/7 89/250/6 63/251/6 64/252/7 

vt -2.18234 0.868042
f 88/243/1 87/244/1 89/253/1

v 55.7382 0 -19.7189
vt -2.19442 0.776334
f 89/253/1 87/244/1 90/254/1

f 57/161/1 90/254/1 87/244/1

f 57/161/1 59/162/1 90/254/1

vt -1.05612 0
vn -1 0 -2.22561e-15
vt -0.963623 0
vt -0.963623 0.0984252
vt -1.05612 0.0984252
f 90/255/29 59/256/4 60/257/4 61/258/29 

vt -0.575763 0
vt -0.483264 0
vt -0.483264 0.0984252
vt -0.575763 0.0984252
f 89/259/6 90/260/29 61/261/29 63/262/6 

v 57.3634 0 -22.5659
vt -2.2584 0.888421
f 57/161/1 87/244/1 91/263/1

vt -0.0434583 0
vt 0.0695959 0
vt 0.0695959 0.0984252
v 57.3634 2.5 -22.5659
vt -0.0434583 0.0984252
f 91/264/8 87/265/15 62/266/15 92/267/8 

v 57.3634 2.5 -16.8719
vt 2.2584 0.664247
vt 2.2584 0.888421
f 62/170/13 93/268/13 92/269/13

f 62/170/13 58/167/13 93/268/13

vt 1.36488 0
v 57.3634 0 -16.8719
vt 1.47794 0
vt 1.47794 0.0984252
vt 1.36488 0.0984252
f 57/270/11 94/271/10 93/272/10 58/273/11 

vt -2.2584 0.664247
f 57/161/1 91/263/1 94/274/1

v 57.7382 0 -19.7189
vt -2.27316 0.776334
f 94/274/1 91/263/1 95/275/1

vt 0.472986 0
vn 1 0 1.76369e-15
vt 0.58604 0
vt 0.58604 0.0984252
v 57.7382 2.5 -19.7189
vt 0.472986 0.0984252
f 95/276/30 91/277/8 92/278/8 96/279/30 

vt 2.27316 0.776334
f 92/269/13 93/268/13 96/280/13

vt 0.953345 0
vt 1.0664 0
vt 1.0664 0.0984252
vt 0.953345 0.0984252
f 94/281/10 95/282/30 96/283/30 93/284/10 

vt 1.68983 0
vt 1.78233 0
vt 1.78233 0.0984252
vt 1.68983 0.0984252
f 19/285/11 21/286/26 24/287/26 20/288/11 

