# Alias OBJ Model File
# Exported from SketchUp, (c) 2000-2012 Trimble Navigation Limited
# File units = millimeters

mtllib Ring_18mm.mtl

g Mesh1 Group1 Model

usemtl FrontColor
v 816 0 -549
vt -11.0846 0
vn -1 0 1.39975e-16
v 809.867 0 -502.413
vt -9.23459 0
vn -0.965926 0 -0.258819
v 809.867 70 -502.413
vt -9.23459 2.75591
v 816 70 -549
vt -11.0846 2.75591
f 1/1/1 2/2/2 3/3/2 4/4/1 

v 835.186 0 -434
vt -16.8971 4.52756
vn 0 -1 -0
vt -15.9003 7.22097
vt -16.1417 9.05512
f 5/5/3 2/6/3 1/7/3

v 798.635 0 -386.365
vt -15.4581 2.65218
f 6/8/3 2/6/3 5/5/3

v 791.885 0 -459
vt -15.1923 5.51181
f 6/8/3 7/9/3 2/6/3

v 763.279 0 -421.721
vt -14.0661 4.04413
f 6/8/3 8/10/3 7/9/3

v 751 0 -349.814
vt -13.5827 1.21316
f 9/11/3 8/10/3 6/8/3

v 726 0 -393.115
vt -12.5984 2.91793
f 9/11/3 10/12/3 8/10/3

v 695.528 0 -326.837
vt -11.3988 0.308546
f 11/13/3 10/12/3 9/11/3

v 682.587 0 -375.133
vt -10.8893 2.20997
f 11/13/3 12/14/3 10/12/3

v 636 0 -319
vt -9.05512 0
f 13/15/3 12/14/3 11/13/3

v 636 0 -369
vt -9.05512 1.9685
f 13/15/3 14/16/3 12/14/3

v 589.413 0 -375.133
vt -7.22097 2.20997
f 13/15/3 15/17/3 14/16/3

v 576.472 0 -326.837
vt -6.71148 0.308546
f 16/18/3 15/17/3 13/15/3

v 546 0 -393.115
vt -5.51181 2.91793
f 16/18/3 17/19/3 15/17/3

v 521 0 -349.814
vt -4.52756 1.21316
f 18/20/3 17/19/3 16/18/3

v 508.721 0 -421.721
vt -4.04413 4.04413
f 18/20/3 19/21/3 17/19/3

v 480.115 0 -459
vt -2.91793 5.51181
f 18/20/3 20/22/3 19/21/3

v 473.365 0 -386.365
vt -2.65218 2.65218
f 21/23/3 20/22/3 18/20/3

v 462.133 0 -502.413
vt -2.20997 7.22097
f 21/23/3 22/24/3 20/22/3

v 456 0 -549
vt -1.9685 9.05512
f 21/23/3 23/25/3 22/24/3

v 436.814 0 -664
vt -1.21316 13.5827
f 21/23/3 24/26/3 23/25/3

v 436.814 0 -434
vt -1.21316 4.52756
f 25/27/3 24/26/3 21/23/3

v 413.837 0 -489.472
vt -0.308546 6.71148
f 26/28/3 24/26/3 25/27/3

v 413.837 0 -608.528
vt -0.308546 11.3988
f 26/28/3 27/29/3 24/26/3

v 406 0 -549
vt 0 9.05512
f 27/29/3 26/28/3 28/30/3

vt -8.97765 0
vn -1 0 1.81968e-16
vt -6.61379 0
vn -0.965926 0 0.258819
v 413.837 70 -489.472
vt -6.61379 2.75591
v 406 70 -549
vt -8.97765 2.75591
f 28/31/4 26/32/5 29/33/5 30/34/4 

vt -6.08252 0
vt -3.71866 0
vn -0.866025 0 0.5
v 436.814 70 -434
vt -3.71866 2.75591
vt -6.08252 2.75591
f 26/35/5 25/36/6 31/37/6 29/38/5 

vt -2.85343 0
vt -0.489571 0
vn -0.707107 0 0.707107
v 473.365 70 -386.365
vt -0.489571 2.75591
vt -2.85343 2.75591
f 25/39/6 21/40/7 32/41/7 31/42/6 

vt 0.489571 0
vt 2.85343 0
vn -0.5 0 0.866025
v 521 70 -349.814
vt 2.85343 2.75591
vt 0.489571 2.75591
f 21/43/7 18/44/8 33/45/8 32/46/7 

vt 3.71866 0
vt 6.08252 0
vn -0.258819 0 0.965926
v 576.472 70 -326.837
vt 6.08252 2.75591
vt 3.71866 2.75591
f 18/47/8 16/48/9 34/49/9 33/50/8 

vt 6.61379 0
vt 8.97765 0
vn -4.47921e-16 0 1
v 636 70 -319
vt 8.97765 2.75591
vt 6.61379 2.75591
f 16/51/9 13/52/10 35/53/10 34/54/9 

vt 11.3415 0
vn 0.258819 0 0.965926
v 695.528 70 -326.837
vt 11.3415 2.75591
f 13/52/10 11/55/11 36/56/11 35/53/10 

vt 10.6492 0
vt 13.013 0
vn 0.5 0 0.866025
v 751 70 -349.814
vt 13.013 2.75591
vt 10.6492 2.75591
f 11/57/11 9/58/12 37/59/12 36/60/11 

vt 11.5144 0
vt 13.8782 0
vn 0.707107 0 0.707107
v 798.635 70 -386.365
vt 13.8782 2.75591
vt 11.5144 2.75591
f 9/61/12 6/62/13 38/63/13 37/64/12 

vn 0.866025 0 0.5
v 835.186 70 -434
f 6/61/13 5/62/14 39/63/14 38/64/13 

v 858.163 0 -489.472
vn 0.965926 0 0.258819
v 858.163 70 -489.472
f 5/57/14 40/58/15 41/59/15 39/60/14 

v 835.186 0 -664
vt -16.8971 13.5827
vt -17.8017 6.71148
f 5/5/3 42/65/3 40/66/3

f 1/7/3 42/65/3 5/5/3

v 809.867 0 -595.587
vt -15.9003 10.8893
f 43/67/3 42/65/3 1/7/3

v 798.635 0 -711.635
vt -15.4581 15.4581
f 43/67/3 44/68/3 42/65/3

v 791.885 0 -639
vt -15.1923 12.5984
f 45/69/3 44/68/3 43/67/3

v 763.279 0 -676.279
vt -14.0661 14.0661
f 46/70/3 44/68/3 45/69/3

v 751 0 -748.186
vt -13.5827 16.8971
f 46/70/3 47/71/3 44/68/3

v 726 0 -704.885
vt -12.5984 15.1923
f 48/72/3 47/71/3 46/70/3

v 695.528 0 -771.163
vt -11.3988 17.8017
f 48/72/3 49/73/3 47/71/3

v 682.587 0 -722.867
vt -10.8893 15.9003
f 50/74/3 49/73/3 48/72/3

v 636 0 -729
vt -9.05512 16.1417
f 51/75/3 49/73/3 50/74/3

v 636 0 -779
vt -9.05512 18.1102
f 51/75/3 52/76/3 49/73/3

v 589.413 0 -722.867
vt -7.22097 15.9003
f 53/77/3 52/76/3 51/75/3

v 576.472 0 -771.163
vt -6.71148 17.8017
f 53/77/3 54/78/3 52/76/3

v 546 0 -704.885
vt -5.51181 15.1923
f 55/79/3 54/78/3 53/77/3

v 521 0 -748.186
vt -4.52756 16.8971
f 55/79/3 56/80/3 54/78/3

v 508.721 0 -676.279
vt -4.04413 14.0661
f 57/81/3 56/80/3 55/79/3

v 480.115 0 -639
vt -2.91793 12.5984
f 58/82/3 56/80/3 57/81/3

v 473.365 0 -711.635
vt -2.65218 15.4581
f 58/82/3 59/83/3 56/80/3

v 462.133 0 -595.587
vt -2.20997 10.8893
f 60/84/3 59/83/3 58/82/3

f 23/25/3 59/83/3 60/84/3

f 59/83/3 23/25/3 24/26/3

vt -13.8782 0
vn -0.707107 0 -0.707107
vt -11.5144 0
vn -0.866025 0 -0.5
v 436.814 70 -664
vt -11.5144 2.75591
v 473.365 70 -711.635
vt -13.8782 2.75591
f 59/85/16 24/86/17 61/87/17 62/88/16 

vt -13.013 0
vt -10.6492 0
v 413.837 70 -608.528
vt -10.6492 2.75591
vt -13.013 2.75591
f 24/89/17 27/90/2 63/91/2 61/92/17 

vt -11.3415 0
vt -11.3415 2.75591
f 27/93/2 28/31/4 30/34/4 63/94/2 

vt 0.308546 6.71148
vn 0 1 -0
vt 0.308546 11.3988
f 29/95/18 63/96/18 30/30/18

vt 1.21316 4.52756
f 63/96/18 29/95/18 31/97/18

vt 1.21316 13.5827
f 63/96/18 31/97/18 61/98/18

vt 2.65218 2.65218
f 61/98/18 31/97/18 32/99/18

v 456 70 -549
vt 1.9685 9.05512
f 61/98/18 32/99/18 64/100/18

v 462.133 70 -502.413
vt 2.20997 7.22097
f 64/100/18 32/99/18 65/101/18

v 480.115 70 -459
vt 2.91793 5.51181
f 65/101/18 32/99/18 66/102/18

vt 4.52756 1.21316
f 66/102/18 32/99/18 33/103/18

v 508.721 70 -421.721
vt 4.04413 4.04413
f 66/102/18 33/103/18 67/104/18

v 546 70 -393.115
vt 5.51181 2.91793
f 67/104/18 33/103/18 68/105/18

vt 6.71148 0.308546
f 68/105/18 33/103/18 34/106/18

v 589.413 70 -375.133
vt 7.22097 2.20997
f 68/105/18 34/106/18 69/107/18

vt 9.05512 0
f 69/107/18 34/106/18 35/108/18

v 636 70 -369
vt 9.05512 1.9685
f 69/107/18 35/108/18 70/109/18

vt 11.3988 0.308546
f 70/109/18 35/108/18 36/110/18

v 682.587 70 -375.133
vt 10.8893 2.20997
f 70/109/18 36/110/18 71/111/18

v 726 70 -393.115
vt 12.5984 2.91793
f 71/111/18 36/110/18 72/112/18

vt 13.5827 1.21316
f 72/112/18 36/110/18 37/113/18

v 763.279 70 -421.721
vt 14.0661 4.04413
f 72/112/18 37/113/18 73/114/18

vt 15.4581 2.65218
f 73/114/18 37/113/18 38/115/18

v 791.885 70 -459
vt 15.1923 5.51181
f 73/114/18 38/115/18 74/116/18

vt 15.9003 7.22097
f 74/116/18 38/115/18 3/117/18

vt 16.8971 4.52756
f 3/117/18 38/115/18 39/118/18

vt 16.1417 9.05512
f 3/117/18 39/118/18 4/119/18

v 835.186 70 -664
vt 16.8971 13.5827
f 75/120/18 4/119/18 39/118/18

v 809.867 70 -595.587
vt 15.9003 10.8893
f 75/120/18 76/121/18 4/119/18

v 798.635 70 -711.635
vt 15.4581 15.4581
f 77/122/18 76/121/18 75/120/18

v 791.885 70 -639
vt 15.1923 12.5984
f 77/122/18 78/123/18 76/121/18

v 763.279 70 -676.279
vt 14.0661 14.0661
f 77/122/18 79/124/18 78/123/18

v 751 70 -748.186
vt 13.5827 16.8971
f 80/125/18 79/124/18 77/122/18

v 726 70 -704.885
vt 12.5984 15.1923
f 80/125/18 81/126/18 79/124/18

v 695.528 70 -771.163
vt 11.3988 17.8017
f 82/127/18 81/126/18 80/125/18

v 682.587 70 -722.867
vt 10.8893 15.9003
f 82/127/18 83/128/18 81/126/18

v 636 70 -779
vt 9.05512 18.1102
f 84/129/18 83/128/18 82/127/18

v 636 70 -729
vt 9.05512 16.1417
f 84/129/18 85/130/18 83/128/18

v 589.413 70 -722.867
vt 7.22097 15.9003
f 84/129/18 86/131/18 85/130/18

v 576.472 70 -771.163
vt 6.71148 17.8017
f 87/132/18 86/131/18 84/129/18

v 546 70 -704.885
vt 5.51181 15.1923
f 87/132/18 88/133/18 86/131/18

v 521 70 -748.186
vt 4.52756 16.8971
f 89/134/18 88/133/18 87/132/18

v 508.721 70 -676.279
vt 4.04413 14.0661
f 89/134/18 90/135/18 88/133/18

v 480.115 70 -639
vt 2.91793 12.5984
f 89/134/18 91/136/18 90/135/18

vt 2.65218 15.4581
f 62/137/18 91/136/18 89/134/18

v 462.133 70 -595.587
vt 2.20997 10.8893
f 62/137/18 92/138/18 91/136/18

f 62/137/18 64/100/18 92/138/18

f 64/100/18 62/137/18 61/98/18

vt 9.23459 0
vn 1 0 -1.25978e-16
vt 11.0846 0
vt 11.0846 2.75591
vt 9.23459 2.75591
f 23/139/19 60/140/15 92/141/15 64/142/19 

vt 10.9061 0
vt 12.7561 0
vt 12.7561 2.75591
vt 10.9061 2.75591
f 60/143/15 58/144/14 91/145/14 92/146/15 

vt 11.7713 0
vt 13.6213 0
vt 13.6213 2.75591
vt 11.7713 2.75591
f 58/147/14 57/148/13 90/149/13 91/150/14 

f 57/147/13 55/148/12 88/149/12 90/150/13 

f 55/143/12 53/144/11 86/145/11 88/146/12 

vn 1.25978e-16 0 1
f 53/139/11 51/140/20 85/141/20 86/142/11 

vt 6.87073 0
vt 8.72071 0
vt 8.72071 2.75591
vt 6.87073 2.75591
f 51/151/20 50/152/9 83/153/9 85/154/20 

vt 3.97561 0
vt 5.82558 0
vt 5.82558 2.75591
vt 3.97561 2.75591
f 50/155/9 48/156/8 81/157/8 83/158/9 

vt 0.746513 0
vt 2.59649 0
vt 2.59649 2.75591
vt 0.746513 2.75591
f 48/159/8 46/160/7 79/161/7 81/162/8 

vt -2.59649 0
vt -0.746513 0
vt -0.746513 2.75591
vt -2.59649 2.75591
f 46/163/7 45/164/6 78/165/6 79/166/7 

vt -5.82558 0
vt -3.97561 0
vt -3.97561 2.75591
vt -5.82558 2.75591
f 45/167/6 43/168/5 76/169/5 78/170/6 

vt -8.72071 0
vt -6.87073 0
vt -6.87073 2.75591
vt -8.72071 2.75591
f 43/171/5 1/172/1 4/173/1 76/174/5 

vn 0.965926 0 -0.258819
f 22/151/21 23/152/19 64/153/19 65/154/21 

vn 0.866025 0 -0.5
f 20/155/22 22/156/21 65/157/21 66/158/22 

vn 0.707107 0 -0.707107
f 19/159/23 20/160/22 66/161/22 67/162/23 

vn 0.5 0 -0.866025
f 17/163/24 19/164/23 67/165/23 68/166/24 

vn 0.258819 0 -0.965926
f 15/167/25 17/168/24 68/169/24 69/170/25 

vn 2.09963e-16 0 -1
f 14/171/26 15/172/25 69/173/25 70/174/26 

vn -0.258819 0 -0.965926
f 12/1/27 14/2/26 70/3/26 71/4/27 

vt -12.7561 0
vn -0.5 0 -0.866025
vt -10.9061 0
vt -10.9061 2.75591
vt -12.7561 2.75591
f 10/175/28 12/176/27 71/177/27 72/178/28 

vt -13.6213 0
vt -11.7713 0
vt -11.7713 2.75591
vt -13.6213 2.75591
f 8/179/16 10/180/28 72/181/28 73/182/16 

f 7/179/17 8/180/16 73/181/16 74/182/17 

f 2/175/2 7/176/17 74/177/17 3/178/2 

f 56/85/28 59/86/16 62/87/16 89/88/28 

f 54/89/27 56/90/28 89/91/28 87/92/27 

vn 0 0 -1
f 52/93/29 54/31/27 87/34/27 84/94/29 

f 49/31/25 52/32/29 84/33/29 82/34/25 

f 47/35/24 49/36/25 82/37/25 80/38/24 

f 44/39/23 47/40/24 80/41/24 77/42/23 

f 42/43/22 44/44/23 77/45/23 75/46/22 

v 858.163 0 -608.528
v 858.163 70 -608.528
f 93/47/21 42/48/22 75/49/22 94/50/21 

vt -17.8017 11.3988
f 40/66/3 42/65/3 93/183/3

v 866 0 -549
vt -18.1102 9.05512
f 40/66/3 93/183/3 95/184/3

vn 1 0 -1.81968e-16
v 866 70 -549
f 95/51/30 93/52/21 94/53/21 96/54/30 

vt 17.8017 11.3988
vt 17.8017 6.71148
vt 18.1102 9.05512
f 94/185/18 41/186/18 96/187/18

f 75/120/18 41/186/18 94/185/18

f 75/120/18 39/118/18 41/186/18

f 40/52/15 95/55/30 96/56/30 41/53/15 

