# Alias OBJ Model File
# Exported from SketchUp, (c) 2000-2012 Trimble Navigation Limited
# File units = millimeters

mtllib Ring_18x22mm_basic.mtl

g Mesh1 Model

usemtl FrontColor
v 46.7382 0 -28.7189
vt 1.67676 0
vn 0 0 1
v 49.0676 0 -28.4122
vt 1.76926 0
vn -0.258819 0 0.965926
v 49.0676 24.5 -28.4122
vt 1.76926 0.964567
v 46.7382 24.5 -28.7189
vt 1.67676 0.964567
f 1/1/1 2/2/2 3/3/2 4/4/1 

vt -1.84009 1.13067
vn 0 -1 -0
v 49.5852 0 -30.3441
vt -1.95217 1.19465
vt -1.93179 1.11859
f 1/5/3 5/6/3 2/7/3

v 46.7382 0 -30.7189
vt -1.84009 1.20941
f 1/5/3 6/8/3 5/6/3

v 44.4088 0 -28.4122
vt -1.74838 1.11859
f 7/9/3 6/8/3 1/5/3

v 43.8912 0 -30.3441
vt -1.728 1.19465
f 7/9/3 8/10/3 6/8/3

v 42.2382 0 -27.5131
vt -1.66292 1.08319
f 9/11/3 8/10/3 7/9/3

v 41.2382 0 -29.2452
vt -1.62355 1.15138
f 9/11/3 10/12/3 8/10/3

v 40.3742 0 -26.0829
vt -1.58954 1.02688
f 11/13/3 10/12/3 9/11/3

v 38.96 0 -27.4971
vt -1.53386 1.08256
f 11/13/3 12/14/3 10/12/3

v 38.944 0 -24.2189
vt -1.53323 0.9535
f 13/15/3 12/14/3 11/13/3

v 38.0449 0 -22.0483
vt -1.49783 0.868042
f 14/16/3 12/14/3 13/15/3

v 37.2119 0 -25.2189
vt -1.46504 0.99287
f 14/16/3 15/17/3 12/14/3

v 37.7382 0 -19.7189
vt -1.48576 0.776334
f 15/17/3 14/16/3 16/18/3

vt 0.963623 0
vn 1 0 -1.6797e-16
vt 1.05612 0
vn 0.965926 0 0.258819
v 38.0449 24.5 -22.0483
vt 1.05612 0.964567
v 37.7382 24.5 -19.7189
vt 0.963623 0.964567
f 16/19/4 14/20/5 17/21/5 18/22/4 

vt 1.37516 0
vt 1.46766 0
vn 0.866025 0 0.5
v 38.944 24.5 -24.2189
vt 1.46766 0.964567
vt 1.37516 0.964567
f 14/23/5 13/24/6 19/25/6 17/26/5 

vt 1.68983 0
vt 1.78233 0
vn 0.707107 0 0.707107
v 40.3742 24.5 -26.0829
vt 1.78233 0.964567
vt 1.68983 0.964567
f 13/27/6 11/28/7 20/29/7 19/30/6 

vt 1.88619 0
vt 1.97869 0
vn 0.5 0 0.866025
v 42.2382 24.5 -27.5131
vt 1.97869 0.964567
vt 1.88619 0.964567
f 11/31/7 9/32/8 21/33/8 20/34/7 

vt 1.95086 0
vt 2.04336 0
vn 0.258819 0 0.965926
v 44.4088 24.5 -28.4122
vt 2.04336 0.964567
vt 1.95086 0.964567
f 9/35/8 7/36/9 22/37/9 21/38/8 

vt 1.87943 0
vt 1.97193 0
vt 1.97193 0.964567
vt 1.87943 0.964567
f 7/39/9 1/40/1 4/41/1 22/42/9 

v 46.7382 24.5 -30.7189
vt 1.84009 1.20941
vn 0 1 -0
vt 1.74838 1.11859
vt 1.84009 1.13067
f 23/43/10 22/44/10 4/45/10

v 43.8912 24.5 -30.3441
vt 1.728 1.19465
f 24/46/10 22/44/10 23/43/10

vt 1.66292 1.08319
f 24/46/10 21/47/10 22/44/10

v 41.2382 24.5 -29.2452
vt 1.62355 1.15138
f 25/48/10 21/47/10 24/46/10

vt 1.58954 1.02688
f 25/48/10 20/49/10 21/47/10

v 38.96 24.5 -27.4971
vt 1.53386 1.08256
f 26/50/10 20/49/10 25/48/10

vt 1.53323 0.9535
f 26/50/10 19/51/10 20/49/10

vt 1.49783 0.868042
f 26/50/10 17/52/10 19/51/10

v 37.2119 24.5 -25.2189
vt 1.46504 0.99287
f 27/53/10 17/52/10 26/50/10

vt 1.48576 0.776334
f 17/52/10 27/53/10 18/54/10

v 37.2119 24.5 -14.2189
vt 1.46504 0.559799
f 27/53/10 28/55/10 18/54/10

v 36.113 24.5 -22.5659
vt 1.42177 0.888421
f 29/56/10 28/55/10 27/53/10

v 36.113 24.5 -16.8719
vt 1.42177 0.664247
f 29/56/10 30/57/10 28/55/10

v 35.7382 24.5 -19.7189
vt 1.40702 0.776334
f 30/57/10 29/56/10 31/58/10

v 36.113 0 -22.5659
vt -1.0664 0
vn -0.965926 0 -0.258819
v 35.7382 0 -19.7189
vt -0.953345 0
vn -1 0 1.95966e-16
vt -0.953345 0.964567
vt -1.0664 0.964567
f 32/59/11 33/60/12 31/61/12 29/62/11 

vt -1.42177 0.888421
v 36.113 0 -16.8719
vt -1.42177 0.664247
vt -1.40702 0.776334
f 32/63/3 34/64/3 33/65/3

f 34/64/3 32/63/3 15/17/3

vt -1.47794 0
vn -0.866025 0 -0.5
vt -1.36488 0
vt -1.36488 0.964567
vt -1.47794 0.964567
f 15/66/13 32/67/11 29/68/11 27/69/13 

vt -1.79261 0
vn -0.707107 0 -0.707107
vt -1.67955 0
vt -1.67955 0.964567
vt -1.79261 0.964567
f 12/70/14 15/71/13 27/72/13 26/73/14 

vt -1.98897 0
vn -0.5 0 -0.866025
vt -1.87591 0
vt -1.87591 0.964567
vt -1.98897 0.964567
f 10/74/15 12/75/14 26/76/14 25/77/15 

vt -2.05364 0
vn -0.258819 0 -0.965926
vt -1.94058 0
vt -1.94058 0.964567
vt -2.05364 0.964567
f 8/78/16 10/79/15 25/80/15 24/81/16 

vt -1.9822 0
vn 0 0 -1
vt -1.86915 0
vt -1.86915 0.964567
vt -1.9822 0.964567
f 6/82/17 8/83/16 24/84/16 23/85/17 

vt -1.77954 0
vn 0.258819 0 -0.965926
vt -1.66649 0
vt -1.66649 0.964567
v 49.5852 24.5 -30.3441
vt -1.77954 0.964567
f 5/86/18 6/87/17 23/88/17 35/89/18 

vt 1.93179 1.11859
vt 1.95217 1.19465
f 23/43/10 3/90/10 35/91/10

f 23/43/10 4/45/10 3/90/10

v 51.2382 24.5 -27.5131
vt 2.01725 1.08319
f 35/91/10 3/90/10 36/92/10

vt 1.35668 0
v 51.2382 0 -27.5131
vt 1.44918 0
vn -0.5 0 0.866025
vt 1.44918 0.964567
vt 1.35668 0.964567
f 2/93/2 37/94/19 36/95/19 3/96/2 

vt -2.01725 1.08319
f 2/7/3 5/6/3 37/97/3

v 52.2382 0 -29.2452
vt -2.05662 1.15138
f 37/97/3 5/6/3 38/98/3

vt -1.45946 0
vn 0.5 0 -0.866025
vt -1.3464 0
vt -1.3464 0.964567
v 52.2382 24.5 -29.2452
vt -1.45946 0.964567
f 38/99/20 5/100/18 35/101/18 39/102/20 

vt 2.05662 1.15138
f 35/91/10 36/92/10 39/103/10

v 53.1022 24.5 -26.0829
vt 2.09064 1.02688
f 39/103/10 36/92/10 40/104/10

vt 0.940987 0
v 53.1022 0 -26.0829
vt 1.03349 0
vn -0.707107 0 0.707107
vt 1.03349 0.964567
vt 0.940987 0.964567
f 37/105/19 41/106/21 40/107/21 36/108/19 

vt -2.09064 1.02688
f 37/97/3 38/98/3 41/109/3

v 54.5164 0 -27.4971
vt -2.14631 1.08256
f 41/109/3 38/98/3 42/110/3

vt -1.04376 0
vn 0.707107 0 -0.707107
vt -0.930709 0
vt -0.930709 0.964567
v 54.5164 24.5 -27.4971
vt -1.04376 0.964567
f 42/111/22 38/112/20 39/113/20 43/114/22 

vt 2.14631 1.08256
f 39/103/10 40/104/10 43/115/10

v 54.5324 24.5 -24.2189
vt 2.14695 0.9535
f 43/115/10 40/104/10 44/116/10

vt 0.458017 0
v 54.5324 0 -24.2189
vt 0.550516 0
vn -0.866025 0 0.5
vt 0.550516 0.964567
vt 0.458017 0.964567
f 41/117/21 45/118/23 44/119/23 40/120/21 

vt -2.14695 0.9535
f 41/109/3 42/110/3 45/121/3

v 56.2645 0 -25.2189
vt -2.21514 0.99287
f 45/121/3 42/110/3 46/122/3

vt -0.560793 0
vn 0.866025 0 -0.5
vt -0.447739 0
vt -0.447739 0.964567
v 56.2645 24.5 -25.2189
vt -0.560793 0.964567
f 46/123/24 42/124/22 43/125/22 47/126/24 

vt 2.21514 0.99287
f 43/115/10 44/116/10 47/127/10

v 55.4315 24.5 -22.0483
vt 2.18234 0.868042
f 47/127/10 44/116/10 48/128/10

vt -0.0593182 0
v 55.4315 0 -22.0483
vt 0.0331807 0
vn -0.965926 0 0.258819
vt 0.0331807 0.964567
vt -0.0593182 0.964567
f 45/129/23 49/130/25 48/131/25 44/132/23 

vt -2.18234 0.868042
f 45/121/3 46/122/3 49/133/3

v 55.7382 0 -19.7189
vt -2.19442 0.776334
f 49/133/3 46/122/3 50/134/3

v 56.2645 0 -14.2189
vt -2.21514 0.559799
f 51/135/3 50/134/3 46/122/3

v 55.4315 0 -17.3895
vt -2.18234 0.684627
f 51/135/3 52/136/3 50/134/3

v 54.5324 0 -15.2189
vt -2.14695 0.599169
f 51/135/3 53/137/3 52/136/3

v 54.5164 0 -11.9407
vt -2.14631 0.470107
f 54/138/3 53/137/3 51/135/3

v 53.1022 0 -13.3549
vt -2.09064 0.525785
f 54/138/3 55/139/3 53/137/3

v 52.2382 0 -10.1926
vt -2.05662 0.401284
f 56/140/3 55/139/3 54/138/3

v 51.2382 0 -11.9247
vt -2.01725 0.469475
f 56/140/3 57/141/3 55/139/3

v 49.5852 0 -9.09371
vt -1.95217 0.35802
f 58/142/3 57/141/3 56/140/3

v 49.0676 0 -11.0256
vt -1.93179 0.434077
f 58/142/3 59/143/3 57/141/3

v 46.7382 0 -8.71889
vt -1.84009 0.343263
f 60/144/3 59/143/3 58/142/3

v 46.7382 0 -10.7189
vt -1.84009 0.422004
f 60/144/3 61/145/3 59/143/3

v 44.4088 0 -11.0256
vt -1.74838 0.434077
f 60/144/3 62/146/3 61/145/3

v 43.8912 0 -9.09371
vt -1.728 0.35802
f 63/147/3 62/146/3 60/144/3

v 42.2382 0 -11.9247
vt -1.66292 0.469475
f 63/147/3 64/148/3 62/146/3

v 41.2382 0 -10.1926
vt -1.62355 0.401284
f 65/149/3 64/148/3 63/147/3

v 40.3742 0 -13.3549
vt -1.58954 0.525785
f 65/149/3 66/150/3 64/148/3

v 38.96 0 -11.9407
vt -1.53386 0.470107
f 67/151/3 66/150/3 65/149/3

v 38.944 0 -15.2189
vt -1.53323 0.599169
f 67/151/3 68/152/3 66/150/3

v 38.0449 0 -17.3895
vt -1.49783 0.684627
f 67/151/3 69/153/3 68/152/3

v 37.2119 0 -14.2189
vt -1.46504 0.559799
f 70/154/3 69/153/3 67/151/3

f 70/154/3 16/18/3 69/153/3

f 70/154/3 15/17/3 16/18/3

f 34/64/3 15/17/3 70/154/3

vt -0.0695959 0
vt 0.0434583 0
vt 0.0434583 0.964567
vt -0.0695959 0.964567
f 34/155/25 70/156/23 28/157/23 30/158/25 

vt 0.447739 0
vt 0.560793 0
v 38.96 24.5 -11.9407
vt 0.560793 0.964567
vt 0.447739 0.964567
f 70/159/23 67/160/21 71/161/21 28/162/23 

vt 0.930709 0
vt 1.04376 0
v 41.2382 24.5 -10.1926
vt 1.04376 0.964567
vt 0.930709 0.964567
f 67/163/21 65/164/19 72/165/19 71/166/21 

vt 1.3464 0
vt 1.45946 0
v 43.8912 24.5 -9.09371
vt 1.45946 0.964567
vt 1.3464 0.964567
f 65/167/19 63/168/2 73/169/2 72/170/19 

vt 1.66649 0
vt 1.77954 0
vn -2.23961e-16 0 1
v 46.7382 24.5 -8.71889
vt 1.77954 0.964567
vt 1.66649 0.964567
f 63/171/2 60/172/26 74/173/26 73/174/2 

vt 1.86915 0
vt 1.9822 0
v 49.5852 24.5 -9.09371
vt 1.9822 0.964567
vt 1.86915 0.964567
f 60/175/26 58/176/9 75/177/9 74/178/26 

vt 1.94058 0
vt 2.05364 0
v 52.2382 24.5 -10.1926
vt 2.05364 0.964567
vt 1.94058 0.964567
f 58/179/9 56/180/8 76/181/8 75/182/9 

vt 1.87591 0
vt 1.98897 0
v 54.5164 24.5 -11.9407
vt 1.98897 0.964567
vt 1.87591 0.964567
f 56/183/8 54/184/7 77/185/7 76/186/8 

vt 1.67955 0
vt 1.79261 0
v 56.2645 24.5 -14.2189
vt 1.79261 0.964567
vt 1.67955 0.964567
f 54/187/7 51/188/6 78/189/6 77/190/7 

vt 1.36488 0
v 57.3634 0 -16.8719
vt 1.47794 0
v 57.3634 24.5 -16.8719
vt 1.47794 0.964567
vt 1.36488 0.964567
f 51/191/6 79/192/5 80/193/5 78/194/6 

v 57.3634 0 -22.5659
vt -2.2584 0.888421
vt -2.2584 0.664247
f 51/135/3 81/195/3 79/196/3

f 51/135/3 46/122/3 81/195/3

vt -0.0434583 0
vn 0.965926 0 -0.258819
vt 0.0695959 0
vt 0.0695959 0.964567
v 57.3634 24.5 -22.5659
vt -0.0434583 0.964567
f 81/197/27 46/198/24 47/199/24 82/200/27 

vt 2.2584 0.664247
vt 2.2584 0.888421
f 47/127/10 80/201/10 82/202/10

vt 2.21514 0.559799
f 47/127/10 78/203/10 80/201/10

v 55.7382 24.5 -19.7189
vt 2.19442 0.776334
f 47/127/10 83/204/10 78/203/10

f 47/127/10 48/128/10 83/204/10

vt -0.575763 0
vt -0.483264 0
vn -1 0 -2.22561e-15
vt -0.483264 0.964567
vt -0.575763 0.964567
f 49/205/25 50/206/28 83/207/28 48/208/25 

vt -1.05612 0
vt -0.963623 0
v 55.4315 24.5 -17.3895
vt -0.963623 0.964567
vt -1.05612 0.964567
f 50/209/28 52/210/11 84/211/11 83/212/28 

vt -1.46766 0
vt -1.37516 0
v 54.5324 24.5 -15.2189
vt -1.37516 0.964567
vt -1.46766 0.964567
f 52/213/11 53/214/13 85/215/13 84/216/11 

vt -1.78233 0
vt -1.68983 0
v 53.1022 24.5 -13.3549
vt -1.68983 0.964567
vt -1.78233 0.964567
f 53/217/13 55/218/14 86/219/14 85/220/13 

vt -1.97869 0
vt -1.88619 0
v 51.2382 24.5 -11.9247
vt -1.88619 0.964567
vt -1.97869 0.964567
f 55/221/14 57/222/15 87/223/15 86/224/14 

vt -2.04336 0
vt -1.95086 0
v 49.0676 24.5 -11.0256
vt -1.95086 0.964567
vt -2.04336 0.964567
f 57/225/15 59/226/16 88/227/16 87/228/15 

vt -1.97193 0
vt -1.87943 0
vn 2.79951e-16 0 -1
v 46.7382 24.5 -10.7189
vt -1.87943 0.964567
vt -1.97193 0.964567
f 59/229/16 61/230/29 89/231/29 88/232/16 

vt -1.76926 0
vt -1.67676 0
v 44.4088 24.5 -11.0256
vt -1.67676 0.964567
vt -1.76926 0.964567
f 61/233/29 62/234/18 90/235/18 89/236/29 

vt -1.44918 0
vt -1.35668 0
v 42.2382 24.5 -11.9247
vt -1.35668 0.964567
vt -1.44918 0.964567
f 62/237/18 64/238/20 91/239/20 90/240/18 

vt -1.03349 0
vt -0.940987 0
v 40.3742 24.5 -13.3549
vt -0.940987 0.964567
vt -1.03349 0.964567
f 64/241/20 66/242/22 92/243/22 91/244/20 

vt -0.550516 0
vt -0.458017 0
v 38.944 24.5 -15.2189
vt -0.458017 0.964567
vt -0.550516 0.964567
f 66/245/22 68/246/24 93/247/24 92/248/22 

vt -0.0331807 0
vt 0.0593182 0
v 38.0449 24.5 -17.3895
vt 0.0593182 0.964567
vt -0.0331807 0.964567
f 68/249/24 69/250/27 94/251/27 93/252/24 

vt 0.483264 0
vt 0.575763 0
vt 0.575763 0.964567
vt 0.483264 0.964567
f 69/253/27 16/254/4 18/255/4 94/256/27 

vt 1.49783 0.684627
f 18/54/10 28/55/10 94/257/10

vt 1.53386 0.470107
f 94/257/10 28/55/10 71/258/10

vt 1.53323 0.599169
f 94/257/10 71/258/10 93/259/10

vt 1.58954 0.525785
f 93/259/10 71/258/10 92/260/10

vt 1.62355 0.401284
f 92/260/10 71/258/10 72/261/10

vt 1.66292 0.469475
f 92/260/10 72/261/10 91/262/10

vt 1.728 0.35802
f 91/262/10 72/261/10 73/263/10

vt 1.74838 0.434077
f 91/262/10 73/263/10 90/264/10

vt 1.84009 0.343263
f 90/264/10 73/263/10 74/265/10

vt 1.84009 0.422004
f 90/264/10 74/265/10 89/266/10

vt 1.95217 0.35802
f 89/266/10 74/265/10 75/267/10

vt 1.93179 0.434077
f 89/266/10 75/267/10 88/268/10

vt 2.01725 0.469475
f 88/268/10 75/267/10 87/269/10

vt 2.05662 0.401284
f 87/269/10 75/267/10 76/270/10

vt 2.09064 0.525785
f 87/269/10 76/270/10 86/271/10

vt 2.14631 0.470107
f 86/271/10 76/270/10 77/272/10

vt 2.14695 0.599169
f 86/271/10 77/272/10 85/273/10

f 85/273/10 77/272/10 78/203/10

vt 2.18234 0.684627
f 85/273/10 78/203/10 84/274/10

f 84/274/10 78/203/10 83/204/10

v 57.7382 24.5 -19.7189
vt 2.27316 0.776334
f 82/202/10 80/201/10 95/275/10

vt 0.953345 0
v 57.7382 0 -19.7189
vt 1.0664 0
vn 1 0 1.76369e-15
vt 1.0664 0.964567
vt 0.953345 0.964567
f 79/276/5 96/277/30 95/278/30 80/279/5 

vt -2.27316 0.776334
f 79/196/3 81/195/3 96/280/3

vt 0.472986 0
vt 0.58604 0
vt 0.58604 0.964567
vt 0.472986 0.964567
f 96/281/30 81/282/27 82/283/27 95/284/30 

vt -0.58604 0
vt -0.472986 0
vt -0.472986 0.964567
vt -0.58604 0.964567
f 33/285/12 34/286/25 30/287/25 31/288/12 

